<?xml version="1.0" encoding="utf-8"?>
<!-- Generator: Adobe Illustrator 19.0.0, SVG Export Plug-In . SVG Version: 6.00 Build 0)  -->
<svg version="1.1" id="Layer_1" xmlns="http://www.w3.org/2000/svg" xmlns:xlink="http://www.w3.org/1999/xlink" x="0px" y="0px"
	 viewBox="0 0 960 1280" style="enable-background:new 0 0 960 1280;" xml:space="preserve">
<style type="text/css">
	.st0{fill:#FFFFFF;}
	.st1{fill:#010101;}
	.st2{fill:#010202;}
	.st3{fill:#010201;}
	.st4{fill:#020202;}
	.st5{fill:#FDFDFD;}
	.st6{fill:#313131;}
	.st7{fill:#030303;}
	.st8{fill:#686767;}
	.st9{fill:#FFFEFE;}
	.st10{fill:#FEFEFE;}
	.st11{fill:#FFFFFE;}
</style>
<g id="XMLID_1_">
	<g id="XMLID_256_">
		<path id="XMLID_503_" class="st0" d="M961,990c0,95.7,0,191.3,0.1,287c0,3.3-0.6,4.1-4.1,4.1c-317.6-0.1-635.3-0.1-952.9,0
			c-3.9,0-4.2-1.1-4.2-4.5C0,852.9,0,429.1-0.1,5.3c0-4.1,1.4-4.4,4.8-4.4C322,1,639.3,1,956.6,0.9c3.9,0,4.5,1,4.5,4.7
			C961,165.4,961,325.2,961,485c-1.9,1.9-4.5,1.9-6.9,2.4c-1.7,0.3-4.4-0.1-4.1,2.4c0.3,2.7,2.9,3.5,5.3,3.1
			c2.1-0.3,4.2-1.6,5.6,1.1c0,3.3,0,6.7,0,10c-0.7,0.9-0.5,2.2-1.3,3c-2.3,2.3,0.3,2.3,1.3,3c0,2,0,4,0,6
			c-4.9,6.2-12.2,6.2-19.1,6.7c-2.7,0.2-4.8,0.5-6.6,2.5c-1.6,1.8-4.2,2.5-5.5,4.3c-6.2,8.6-16.8,12.7-22.3,22.1
			c-0.8,1.4-2.1,3.3-3.8,2.5c-2.3-1-1-3-0.2-5.1c-3,2.7-6,4.7-8.8,7.2c-1,0.9-2.3,1.8-3.6,0.8c-1.5-1.1-0.9-2.7-0.1-4.1
			c1.4-2.5,2.9-4.9,5.4-6.5c13.9-9,25.6-20.7,38.6-30.7c1.1-0.8,2.1-1.6,3.2-2.4c2.4-1.7,5.6-2.2,5.4-6.5c-0.1-1.9,2.8-3.5,4.7-5.1
			c-1.5-0.2-3.5,0.6-4.3-0.8c-2-3.5-4.4-2.6-7.1-1.3c-2,1-4,1.7-5.8-0.5c-1.2-1.5-2.7-0.7-3.4,0.3c-2.2,3-4.4,1.8-7,0.6
			c-4.4-2.2-9.1-3.2-14-2.7c-2.3,0.3-4.6,0.7-2.8,4c1,1.9-0.7,2.7-1.8,3.5c-9.9,6.8-17,16.3-25,25c-9.3,10.1-17,21.4-25.4,32.2
			c-2.8,3.6-5.4,7.5-7.5,11.7c-1.2,2.3-2.8,4.2-5.1,5.3c-1.9,1-3.8,2.8-6,1.8c-2.5-1.1-2-4.9-4.8-6.1c-0.3-0.1,0-1,0.4-1.2
			c2.6-1.4,1.3-2.4-0.2-3.5c-1-0.7-2.8-1.3-2.1-2.9c0.7-1.4,2.3-0.8,3.6-0.6c0.5,0.1,0.9,0.3,1.7-0.1c-2.6-2.2-2.8-4.6-0.3-7.1
			c0.6-0.6,1.2-1.3,0.6-2.2c-2.1-2.8,0.3-3.9,2.1-4.9c1.6-0.9,2.4-1.4,1.8-3.7c-1-3.8,3-6,4-9.4c2.2-8.1,7.9-15,8.6-23.7
			c0.1-0.7-0.3-0.1,0.1-0.5c3.8-3.9,2.9-9.3,4.7-13.8c0.8-1.9,2.8-2.2,4.7-1.7c3.8,2,7.6,3.8,12.1,2.1c1.4-0.5,2.7,0.2,3,1.7
			c0.3,1.5-1,2.3-2.2,2.9c-0.3,0.2-0.6,0.1-1,0.1c-8,0.7-8.4,1.4-4.6,8c0,2-1,3.8-1.4,5.7c-0.2,0.8-0.8,1.4-1.5,2.5
			c3.5-1,6.9-1.5,9.8-3.5c-1.5-2.9-4.4-3.5-7-4.7c-0.9-1.2-0.7-2.1,0.8-2.7c1.6-0.6,3.4-1.2,1-3.2c-0.4-0.4-0.5-1.2-0.1-1.9
			c0.6-0.9,1.5-0.6,2.2-0.2c1.3,0.7,3.1,0.7,4,1.9c4,5.5,8.6,3.1,13.2,1.2c0-1.1-0.8-0.7-1.3-0.8c-2.1-0.6-5.2,0.1-5.8-2.7
			c-0.6-2.6,1.8-4.2,3.5-5.6c1.4-1.1,2.5-1.9,2.1-3.8c0.2-0.3,0.7-0.3,0.5-0.9c0.1,0.5-0.3,0.7-0.7,1c-2.1,1.1-4.2,0.7-6.5,0.6
			c1.4,1.1,3.2,2,2,3.9c-0.8,1.4-2.6,1.2-4.1,1.1c-1.2-0.1-2.4-0.4-3.3-1.1c-3.4-2.5-7.2-3.2-11.3-3c-1-0.3-1.8-0.7-2.3-1.6
			c0-2.8,2-4.8,2.7-7.4c-4.2-1.8-7,1.9-10.5,2.7c-1.8-0.3-3.6-0.3-5.4,0.2c-1.1,0.5-2.1-0.7-3.9,0.1c3.3,1.3,6.7-1.6,9.1,1.3
			c0,1.8-1.7,2.4-2.6,2.5c-1.9,0.3-1.3,3.4-3.7,2.8l1.5,2.8c0.5,0.4,1.1,0.8,0.8,1.6c-0.2,0.5-0.7,0.7-1.2,0.8
			c-1.5,0.4-3-0.3-4.5-0.1c-2.2-1.3-1.6,1.4-2.6,1.8c-0.9,0.4-1.8,0-2.7,0.2c1.3,0,2.9,0.1,2.9,1.7c0.1,2-1.3,3.1-3.3,3.2
			c-0.7-0.4-1.2-1-2.2-1.2c0.7,0.3,1.4,0.5,1.8,1c-0.2,4.3-3.1,0.3-4.2,1.4c1.7,0.2,3.4,0.6,5.9,1.9c-3.5,1.5-6.5,1.6-9.2,2.6
			c-0.3,0.1-1-0.5-0.8-0.1c1.5,4.6-4.9,4.8-4.8,8.6c-5.9,2.8-7.7,9.2-10.2,14.2c-2.1,4.2-4.8,8-7,12.1c-4.5,8.2-8.4,16.6-13.3,24.6
			c-10.5,17.2-20.5,34.7-31.2,51.7c-2.4,3.7-7.1,4.4-9.2,8.4c-0.6,1.2-1.7,0-2.4-0.6c-2-2.1-4.3-3.6-7.1-4.5c-2.1-0.7-3-2.6-2.9-4.8
			c0.2-3.2-1.2-4.7-4.1-3.8c-5.4,1.6-11,0.2-16.5,2.5c-3.6,1.5-5.1-0.6-4.7-4.6c0.2-1.6,1-3.2,0.3-5.2c-0.7,1.1-0.8,2.2-1.4,3.1
			c-0.9,1.4-2,2.2-3.7,1.6c-1.7-0.6-2.3-1.9-2-3.6c0.7-4.1,1.4-8-0.1-12.2c-0.6-1.6,0.2-3.7-2.4-4.1c-2.2-0.4-4,0.3-5,2.4
			c-1.4,3.1-3.5,4.7-7,4.3c-2.2-0.2-3.9-0.8-4.3-3.3c-0.6-3.6-2.5-2.9-4.5-1.4c-1.6,1.2-3.2,1.5-5.2,1.3c-8-0.8-10.6,0.9-12.9,8.7
			c-0.7,2.2-1,4.5-1.2,6.9c-0.7,7-5.3,10.6-12.9,10.7c-2.4,0-4.5,1.1-6.9,0.8c-0.3,0-0.7-0.3-1.1,0.2c-2.3,3.6-2.2,3.5-4.7,0.2
			c-0.9-1.2-2.2-3.8-3.8-0.5c-0.8,1.6-2,1.6-3.3,1.2c-1.8-0.5-3.1-1.7-2.8-3.6c0.6-3.5-1.3-3.9-3.9-3.6c-1,0.1-2.2,0.7-2.9-0.1
			c-3.9-4.7-4-0.9-6.1,1.9c-3.3,4.3-5.9,9.3-10,12.9c-4,3.5-1.8,6.2,0,9c3.4,5.2,3.5,8.3-0.3,13.2c-1.6,2.1-1.5,9.8,0,12
			c1.7,2.4,0.5,4.1-1.7,5.1c-2.1,0.9-2.9,2.2-3,4.5c-0.3,7.1-3.2,13.5-6.2,19.8c-0.2,0.4-0.9,0.8-0.9,1.2c0.2,8.7-8,13.1-10.5,20.4
			c-0.3,0.3-0.7,0.6-1.1,0.9c-2,1-1.8,4-4.1,4.6c4.9,3.1,5.1,4.3,1.6,8.2c-0.3,0.3,0.2,0.3,0.4,0.4c1.3,0.8,2.3,2.3,1.2,3.2
			c-2.2,1.9-3.3,4.9-6.2,6.1c-3.4-1.7-3.6-4.9-3.8-8.1c-0.1-1.1,0.3-3.1-1.1-2.8c-4.5,0.7-6.6-2.9-8.9-4.8
			c-3.5,7.3-7.1,14.6-6.3,23.3c0.9,0.2,2.6-0.9,4.2-1.9c3.5-2.2,7.4-3.8,11.1-5.6c1.7-0.8,3.4-1.4,5.1,0c0.2,0.3,0.5,0.6,0.5,0.9
			c-0.3,13.9-1,27.6-9.3,39.8c-6.8,9.9-10.9,21.3-15.5,32.4c-2.3,5.4-4.7,10.8-8.1,15.4c-7.8,10.6-7.9,21.3-3.2,33
			c3.3,8.3,8.7,14.9,14.1,21.7c2.2,2.7,4.5,5.4,6.1,8.5c2.7,5.4,1.5,9.7-3.3,13.5c-3.8,3-6.9,6.8-10.2,10.3
			c-6.8,7.3-13,8.7-21.7,4.1c-6.5-3.5-13-3.4-19.8-1.6c-10.6,2.9-21.2,5.6-31.1,10.5c-8,4-14.9,9.4-20.5,16.3
			c-2.9,3.6-2.1,8.1-1,11.5c2.2,7,2.8,14.3,4.7,21.4c1.2,4.4,2.9,6.7,7.8,6.1c2.1-0.3,4.4-0.4,6.3,1c0.9,1.9,0.1,3.9,0.3,5.9
			c0.3,4,1.8,5.3,5.7,5.1c1.5-0.1,3-0.5,4.4-0.7c2.8-0.5,4.8,0.2,6,3c1.7,3.9,4.7,5.9,9.1,5.6c2.9-0.2,5.2,0.8,6.8,3.3
			c0.4,0.7,1,1.7,1.7,1.7c6.8,0.2,6.7,5.9,7.8,10.2c2.4,9.6,2.9,10,12.8,7.8c6.3-1.4,8.6-0.5,11.7,5.1c1.3,2.4,3.1,3,5.4,2.1
			c3-1.2,5.9-0.8,8.8,0.2c3.8,1.3,7.6,0.3,11.4,0.3c3.6,0,3.2-3.7,4.8-5.7c0.9-0.6,1.9-0.6,2.9-0.2c0.1,0.1,0.3,0.2,0.4,0.3
			c1.4,1.8-0.8,4.8,1.4,6c2.7,1.4,5.8,0.2,8.8,0.5c3.2,0.4,3.1-3.5,5-4.9c1.5-0.7,3.1-0.7,4.6,0.1c1.6,3.1,4.1,4.2,7.7,4.1
			c4.2-0.1,8.4,0.4,9.2,6.2c0.3,2.6,3,3.2,5.2,2.8c7.9-1.4,15.9,0.2,23.8-0.9c3.3-0.5,5.4-2.2,7-4.9c1.6-0.9,3-0.6,4.3,0.5
			c0.3,0.4,0.6,0.8,0.8,1.2c1.8,5,2,5,6.6,1.8c1.5-0.4,2.9-0.5,4,1c-3.2,4.6-4.8,9,0.9,12.9c0.3,0.2,0,0.9-0.2,1.4
			c-2.7,3.1-6.4,4.9-10.1,6.2c-8.2,2.7-15.9,6.8-24.8,7.2c-2.8,0.1-5.5,1.5-8.1,2.5c-8.3,3.1-16.9,0.9-25.2,2.2
			c-7.1,1.1-12.5,4.3-17.2,9.2c-3.7,3.9-6.3,8.6-8.5,13.5c-0.8,1.8-1.1,3.6,1.1,4.7c6.2,3.3,9.3,9.4,12.9,15
			c11.3,17.8,19.7,37,29.3,55.7c6,11.7,13.3,22.7,19.9,34.1c2.3,4,6.1,5.4,10.2,6.6c16,4.8,31.8,10.1,46.9,17.3
			c10.4,4.9,20.8,9.8,31.3,14.5c4.9,2.2,10,3.7,15.3,4.7c5.4,1,10.1-0.2,13.5-5.2c3.2-4.7,6.6-9.1,8.8-14.5
			c1.7-4.1,1.6-7.3-1.9-10.2c-1.5-1.3-2.8-2.9-3.6-4.7c-0.6-1.4-0.9-2.9,0.3-4.2c1-1.2,2.4-0.8,3.7-0.5c10.2,2.2,11.4,1.1,10.3-9.2
			c-1-9.2,0.7-17.9,5.4-26c4.5-7.8,8.9-15.7,10.7-24.6c0.4-2.1,0.8-4.3,0.7-6.4c-0.1-3.6,0.3-6.9,3.8-9.2c1.6-1,1.8-3.1,2.6-4.8
			c5-10.2,5.2-21.2,5-32.1c-0.1-4.9,0.9-9.6,1.2-13.3c-2,9.3-1,19.8-1.9,30.1c-0.2,2.2,0.9,5.8-2.5,6.2c-3,0.3-4.5-2.8-5.1-5.4
			c-2.2-8.2-1.2-16.6,0.5-24.7c2.1-10.2,3.3-20.7,6.2-26.8c-4.3,11.2-6.1,26.9-9.1,42.3c-0.2,0.8-0.2,1.7-0.5,2.5
			c-0.5,1.5-1.1,3-2.8,3.2c-2,0.2-2.9-1.4-3.6-3c-1.1-2.5-1.3-5.4-0.5-7.9c5.1-16.1,5.5-33.2,11.4-49c2.5-6.6,3.5-13.1,3.3-20
			c-0.2-11.9-3.7-22.6-11.1-31.9c-3.1-3.9-6-8-8.7-12.2c-2.8-4.2-2-6,2.9-6.6c13.5-1.6,11.2-4.3,19.9,8.9c5.8,8.8,8.3,18.4,8.6,28.8
			c0.1,2.2-0.3,4.3,0.6,6.4c1.3-12.6,0.6-25-5-36.7c-1.3-2.6-3.9-5.3-1.9-8.3c2-3.1,5.7-2,8.8-2c4.2,0,6.7,2.1,7.9,6.3
			c3.1,11.2,2.7,22.4,0.8,33.6c-0.3,2-0.8,3.9-1,5.5c2.5-11.3,3.4-23.1,1.5-35.1c-0.5-3.2-1.3-7,3-8.5c3.1-1.1,6.7,1.8,8.3,6.3
			c1.2,3.4,2.2,7,4,10.2c0.4,0.7,0.9,1.6,0.8,2.4c-0.8,7.1,0.2,14.3-1.6,21.2c-2.1-0.5-2.1,1.1-2.3,2.4c-0.8,5.9-0.6,11.9-2.6,17.7
			c2-5.1,1.7-10.6,2.6-15.9c0.3-1.7,0.4-3.3,2.2-4.1c1.9,0,1.3,2.5,3,3c2.2-4.4,4-8.8,5.9-13.2c3.9-9.1,10.8-14.4,19.6-18.1
			c12.8-5.3,26.4-6.9,39.9-8.9c10.7-1.6,21.5-2.7,32.3-2.8c10.3-0.1,20.6,0.7,30.9,0.9C959,988.8,960.1,989.2,961,990z"/>
		<path id="XMLID_502_" class="st1" d="M851,491.1c2.5-2.3,5.5-3.4,8.8-4c1.5-0.3,3.1-0.3,4,1.2c1.3,2.3-1.7,0.4-1.8,1.8
			c-0.1,2.3-1,4.4-2.8,6c0.8,1.3,0.3,2.5-0.6,3.6c-0.2,0.1-0.4,0.2-0.5,0.4c-1.3,0.1-2.6,0-3.7,1c-0.3,0.3-1.6,0.8-0.6,0.9
			c5.1,0.8,0.3,2.4,0.1,2.6c-2.9,3.5-2.7,5.2,1.2,7.8c-1.6,1.8-5.3-0.7-6,2.9c-0.5,2.4,2.6,1.7,2.8,3.4c-0.6,1.9-2.5,1.2-3.7,1.9
			c2.5,3.5-4.5,5-1.8,8.6c1.1,1.5-0.7,0.7-1,1.2c-1.4,2.3-5,3.9-2.4,7.6c0.5,0.7-1,1.9-1.2,1.9c-1-0.6-1.8-0.5-2.4,0.5
			c-0.8,1.3,1,1.6,1,2c0.1,1.3-0.3,2.3-2.1,2.9c-3,1-2.9,1.9-0.6,3.9c1.3,1.1,0.3,3.9-1.7,3.8c-2.5-0.1-3,1.8-4.6,2.8
			c1.3,0.6,3.3,0.4,3.4,2.3c0.1,1.7-2,1.3-2.8,2.2c-1.5,1.6-3.6,3.2-0.1,5c1.3,0.7,1.8,2,1.9,3.6c-2.6-0.6-5-1.2-8.9-2.1
			c3.7,2.4,6.6,3.5,8,6.4c-1.2,1.9-3.2,0.2-4.5,1.3c-0.2,2.1,6.6-1.6,2.9,3.4c1.5-0.1,0.1,4,3.8,1.9c3.8-2.2,6.5-4.6,8.8-8.3
			c3.1-5.1,6.5-10.2,10-15.1c4.4-6.3,10.7-11.2,14.3-17.7c2.1-3.8,5.8-6,7.2-8.8c2.3-4.6,6.7-7,9.3-11.2c2-3.3,5.9-6.8,9.5-9.6
			c3-2.3,6.2-4.5,9.5-6.8c-1.2-0.8-2.4-1.6-3.7-2.5c1.9-2.4,4-3.7,7-3.7c5.6,0,11,0.5,15.7,3.9c0.5,0.3,4.7,4,2.5-1.5
			c2.1,2.2,5-5.7,6.8,0.6c0.5,1.8,2.1,1.3,3.1,0.3c1.5-1.5,3.6-1.3,5.2-2.4c1.6-1.1,3.4,0,3.4,0.9c0.2,4.9,2.7,3.2,5.2,2.2
			c0.8-0.3,1.7-1.4,2.5-0.1c0.7,1.3-0.5,1.6-1.3,2c-2.9,1.5-4.4,4.4-7,6.2c1.1,2.2,3.2-2,3.7,0.7c0.3,1.9-1.9,2-3.1,2.7
			c-8.5,5-15.8,11.5-23.2,18c-6.4,5.6-13,10.9-20.2,15.5c-4.4,2.8-8.4,6-8.7,12.2c4.3-3.6,8.5-7.1,12.9-10.8
			c1.9,2.7-2.2,4.6-0.9,7.7c2.8-3.3,5.6-6.5,8.4-9.8c3.6-4.2,7-8.4,12.6-10c1.8-0.5,1.2-0.7,1.4-2.4c0.1-1.4,1.6-3.3,2.9-3.8
			c2.5-0.9,4.1-2.7,5.9-4.5c1.7-1.7,3.8-2.2,6.8-2.3c4.7-0.2,10.4,0.6,14.5-3.3c1.4-1.4,3.4-0.9,4.8-2.2c0,6.3,0,12.7,0,19
			c-1.6,2.8-4.5,3.9-7.1,5.4c-18.2,10.6-32.1,25.5-43.9,42.7c-4.5,6.6-9.7,12.6-14,19.4c-1.2,1.8-3,3-4.8,4.3
			c-0.4,0.4-1,0.5-1.5,1.3c0.6-0.8,1.2-1.1,1.7-1.5c3.3-1.8,5.6-4.8,7.8-7.6c5.9-7.4,14.2-11.8,21.2-17.8
			c5.2-4.4,11.1-7.9,16.8-11.5c7.2-4.7,15.1-8.7,23.6-10.7c0,8,0,16,0,24c-5.9,1.7-9.8,6.4-14.7,9.6c-10.9,7.2-20,16.6-31.1,23.5
			c-0.9,0.6-4,0.1-2,3.1c0.5,0.8-1.1,1.9-2.1,2.4c-2.9,1.6-5.3,4-8.4,5.2c-4.2,1.6-6.4,5.9-8.8,9.1c-4.9,6.4-11,11.9-14.4,19.4
			c-1.1,2.4-2.6,4.7-2.9,7.4c-0.1,0.8,0,1.9-0.8,2.3c-3.7,1.7-3.9,4.9-4.2,8.3c-0.1,0.6-0.7,1.1-1.2,1.5c1.6-1.2,3-2.3,2.6-4.7
			c-0.4-2.5,1.2-3.6,3.5-3.7c0.6,0.1,1.3,0.8,1.7,0.4c0.5-0.4-0.7-0.8-0.5-1.4c0.4-1.7,1.8-2.8,2.7-4.2c0.3-0.5,1.3-1,0.7-1.6
			c-3.9-4.4,0.9-4.2,2.9-5.3c0.8-0.5,2.4-0.3,2.6-1.2c0.8-3.1,3.7-4.6,5.1-6.8c3.8-6.1,10.8-9.2,13.6-15.9c7.4-2.5,9.2-11.8,17-13.9
			c0.3-0.1,0.6-0.3,0.8-0.6c3.4-7.2,10.7-9.7,16.7-13.6c5.5-3.5,11.3-6.8,17.6-9c1.3-0.5,2.6-0.3,3.7,0.8c0,12.3,0,24.7,0,37
			c-2.9,0.7-5.8,0.9-7.6,4.2c-1.3,2.4-4.7,2.2-6.8,3.8c-6.5,4.9-13,10-19.5,14.9c-6,4.5-11.6,9.6-18,13.6c-3.3,2-5.1,6.1-9,7.6
			c-0.8,0.9-1.9,1.5-2.7,3c1.7-0.8,1.7-2.4,2.8-3.1c9.6-4.6,17.7-11.3,26-17.9c8-6.4,17.1-11.2,25.9-16.5c2.5-1.5,5.4-4.2,9.1-3.5
			c0,16.7,0,33.3,0,50c-1.6,3.3-5,4.4-7.8,5.8c-8.8,4.2-15.4,11.4-23.3,16.7c-2.6,1.7-4.8,3.9-7.9,5.6c3.4-1.5,5.8-3.6,8.4-5.7
			c6.9-5.8,15-9.7,22.8-14c2.4-1.3,5-2.8,7.9-1.3c0,65,0,130,0,195c-4.3,2.6-9.1,1.1-13.6,1.3c-15.9,0.6-31.1,4-42,8.7
			c6.3-3.1,16.8-5.6,27.4-7.4c7.1-1.2,14.4-1.2,21.7-1.6c3.1-0.2,4.8,1.9,6.5,4c0,32,0,64,0,96c-10.2-0.1-20.5-0.6-30.6-0.7
			c-13.3-0.1-26.6,1.4-39.8,3.6c-10.7,1.8-21.2,3.4-31.6,6.5c-13.7,4.1-21.4,13.3-25.9,26c-1.2,3.4-2.2,6.9-5,9.8
			c-2.2-2,0.2-4.9-1.6-6.8l0.1,0.1c-0.4-6.2-1.2-12.5,0.5-18.7c0.4-1.4,0.5-3.5-0.2-4.4c-3.4-3.9-3.6-8.9-5.5-13.3
			c-0.6-1.3-1.1-2.1-2.2-2.7c-5-2.4-5.8-1.8-6,3.7c-0.2,4.6,1.2,9.1,1.2,13.8c-0.1,9.4-1.8,18.4-3.5,28.2c-1.7-5.1-0.1-9.6,0.7-13.9
			c1.8-10.6,0.4-20.8-2.3-30.9c-0.8-2.9-3.4-3.4-5.9-3.2c-2.9,0.2-6.7-1.7-8.4,1.1c-1.6,2.6,1.6,5.1,2.7,7.6
			c5.7,11.9,6.1,24.6,5.3,37.4c0,0.8,0.3,4-2,3.6c-2-0.3-1.8-2.5-1.7-4.2c0.5-7.4-0.5-14.8-2.1-21.9c-0.8-3.5-3-6.7-4.6-9.9
			c-1-1.8-2.2-3.5-3.4-5.3c-4.7-7.2-4.7-7.2-14-5.5c-7.1,1.3-7.2,1.4-2.8,7.6c2.9,4.1,6.2,7.9,9,12.1c5.2,7.7,7.9,16.4,9,25.6
			c1.2,10.7-1.3,20.7-5.3,30.4c-2.6,6.4-3,13.2-3.6,20c-0.5,4.9-2.7,9.2-3.9,13.9c-1.2,4.7-2.5,9.4-2.1,14.4c0.2,2,1,4.7,2.7,4.7
			c2.1,0,2.2-2.6,2.3-4.6c0.7-9.2,4.3-17.9,5.3-27c0.8-6.7,3.1-12.8,5.7-18.8c0.5-1.2,0.5-2.8,2.8-3.5c-5.2,13.3-8,26.8-9.5,40.4
			c-0.7,6.3-2.1,13.1,1.6,19.4c0.9,1.5,1.7,2.7,3.7,3.6c1.6-13.7-0.3-27.6,4.2-40.7c-1.7,18,1.8,36.5-6.8,53.7c-0.3,0.7-0.2,2-1,2.1
			c-5.6,0.8-4,5-4.1,8.4c-0.2,9.9-4.2,18.5-9.1,26.7c-6.1,10.2-10.1,20.6-7,32.7c0.8,3.4-0.6,7.3-2.3,9.1c-2.2,2.2-6.3-0.3-9.6-0.9
			c-1.2-0.2-2.5-2.3-3.7-0.7c-1,1.3-0.3,3.1,1.1,4.4c2.3,2.1,3.1,5.9,7.1,6.2c0.5,0,0.4,0.9,0.2,1.7c-2,7.2-4.8,13.9-9.7,19.7
			c-0.8,1-1.6,2-2.3,3.1c-2.4,4.1-8.7,6.1-13.5,5.1c-11.6-2.5-22.2-7.5-32.7-12.7c-20.9-10.3-42.4-18.9-64.8-25.1
			c-4.5-1.2-6.5-4.7-8.8-8.3c-11-16.9-20.4-34.8-29.2-52.8c-5.9-12-11.7-24-18.9-35.2c-3.7-5.8-6.3-13.1-14.4-15
			c-1.5-0.3-1.2-1.6-0.6-3.2c3.5-9.4,9-17.2,17.2-23c4.2-3,9.3-2.4,14-3.5c7-1.6,14.4,1.3,21.5-1.9c1.7-0.8,3.9-1.4,5.9-1.8
			c6.1-1.3,12.2-2.4,18.1-4.4c6.8-2.4,13.6-4.9,19.5-9.1c1.4-2.6,4.2-3,6.4-4.4c1.3-0.8,3.6-1.1,3.2-3.2c-0.3-1.9-2.4-2-3.9-2.5
			c-2.3-0.9-5-0.7-6.7-2.8c-1.1-1.7-2.7-0.7-4-0.7c-3.3,1.2-5.3-0.5-7-3c-1.2-0.9-2.4-1.6-4-1c-3.1,3-5.6,1.1-7.4-1.4
			c-1-1.4-2-3-2.6-4.8c1.6,4.4-0.9,7.7-5.5,6.4c-11.9-3.3-24.2-3.8-36.2-6.6c-0.5-0.1-0.9-0.4-1.3-0.7c-1.7,0-3.3,0-5,0
			c-5-1-10.4,1.4-15-2c-1,0-2,0-3,0c-0.5,0.2-1,0.5-1.4,0.4c-14-2.8-28.5-1.1-42.4-5.3c-4.4-1.3-12.4-11.5-12.7-16.2
			c-0.2-3.1,1.3-4.3,4.2-4c1.2,0.1,2.3,0.4,3.3,1.1c4.2,2.7,8.5,2.5,12.9,0.8c4.4-1.7,8.5-0.1,12.7,1c0.6,0.2,1.2,0.5,1.7,1
			c4,4.3,11.8,4,15.7-0.8c1.7-2.1,3.9-2.3,6.3-2.4c1.9-0.1,3.3-0.4,2.9-2.9c-0.9-5,1.3-8.9,5.7-10.5c4.5-1.7,7.8,1.4,10.5,4.9
			c0.7,0.9,1.2,2.1,2.5,2.2c0.9-0.3,1.1-1.2,1.5-1.9c2.1-4.1,3.8-4.7,8-2.6c3.3,1.6,6.4,3.5,9.3,5.8c4.2,3.5,9.3,4.4,14.2,5.6
			c0.5-1,0.4-1.6,0-1.9c-8.6-4.8-15.1-12.5-23.5-17.6c-5-3-7.2-8.7-9.4-13.9c-4.5-10.4-8.1-12.5-19.6-12c-8.6,0.4-16.5,3.8-25,4.7
			c-16.2,1.7-32.3,4-48.5,6.4c-3.6,0.5-7,2-10.7,2.4c-1.9,0.2-1.7,1.3-1.1,2.9c3.8,10.2,1.9,12.3-9.2,10.7c-1.8-0.3-3.7-0.4-4.9-2.1
			c-1.5-0.1-3-0.2-4.5-0.2c-8.6,0-8.5-0.1-11.1-8c-2.2-6.9-2.7-14.1-4.9-21.1c-2-6.3,1-13.1,6.9-18c6.3-5.2,13.1-9.6,20.4-13
			c5.7-2.7,12.1-4,18.2-5.9c3.7-1.1,7.4-2,11.1-3c6.8-1.8,13-0.4,19,2.9c6.4,3.5,12.7,2.5,17.8-2.4c4.7-4.6,8.1-10.2,14.2-13.7
			c2.3-1.3,2.8-5.8,1.1-9.4c-2.6-5.4-6.7-9.6-10.4-14.1c-8-9.9-13.7-20.8-13.7-33.8c0-6.5,2.8-12,6.8-17.3c3.4-4.5,6-9.9,8-15.2
			c4.3-11.2,9.2-22.1,15.1-32.6c4.4-8,10.4-16,8.8-25.6c-0.9-5.6,0.9-10.2,1.6-15.2l-0.1,0.1c0.7-2.9,2.2-4.8,5.2-6
			c1.7-0.7-0.1-2.1-1.2-2.8c-1.9-1.2-2-1.1-1.9-3.7c1.9-0.2,1.1,2.7,3.2,2.6c2.1-5.1-1.2-6.4-5.3-7.5c2.9,0.1,4.8-2,4.4-3.8
			c-0.9-4,2.1-1.3,2.9-2.1c0,0.4-0.2,0.9,0.1,1.3c-0.3-0.4-0.3-0.8-0.2-1.2c2.3-4.4,3.8-9.1,6.8-13.1c0.6-0.8,1.2-1.5,2.3-1.6
			c2.6-0.2,1.5-3.2,1.3-3.2c-5-1.6-0.5-2.7,0.2-3.7c2.8-3.5,3.2-8,5-12c1.3-3,2.1-6.1,1.7-9.3c-0.4-2.7,0.3-4,3.1-3.7
			c3.3,0.3,1.7-2.6,3-3.9c-1.8-0.2-3,1.8-4.7,0.4c4-2.7,1.1-6.7,2-10c0.4-1.4-2.4-5,2.6-4c1.4,0.3,1.4-2.8,1.1-4.3
			c-0.4-2.1,1.6-5.2-1.2-6c-2.2-0.7-3.3-0.5-1.9-3.1c0.5-1-1.2-1.8-1.9-2.6c-0.9-1-1.5-2.5-0.5-3c2.4-1.3,3.3-3.8,4.9-5.2
			c3.3-2.9,5.7-5.5,4.8-9.9c2-1,2.3,1.3,3.7,1.3c-0.3-1.9,2.3-3.5,0.7-5.9c-0.6-0.8,0.6-1.3,1.2-1.7c1.4-0.7,3.2,0.4,3.5,1
			c2.1,4.5,5.9,2.7,8.9,2.2c2.6-0.4,2.4,1.2,1.8,2c-3.2,4.1-1.2,5.6,3,6.4c0.2-1.9,0.3-3.7,0.5-5.5c2.3-0.6,1.1,4.6,4.6,2.1
			c1.2-0.9,0.8,1.5,1.1,2.5c0.4,1.1-0.9,2.8,1.1,3.2c0.5,0.1,1.6-0.2,1.7-0.5c0.6-1.6-0.3-2.3-1.7-2.9c-0.3-0.1-0.1-1.2-0.2-2.5
			c2.4,1.8,4.5,3.3,6.9,0.8c1-1.1,2.7,1.3,3.7-0.6c5.2,5,3.9-0.8,4.7-2.9c1.7,0.1,1.3,2.2,3.3,3c0.1-0.2,0.1-0.7,0.4-1.1
			c3-4.8,2.9-10.5,4.3-15.7c2.2-8.2,5.8-10.2,14.4-8.5c1.7,0.3,3.4,0.3,4.3-1.6c1.1-2.4,3.7-1.1,5.5-1.9c0.5-0.3,0.3,2.3,0.5,3.5
			c0.2,1.3-0.8,3.6,1.8,3.1c2.1-0.4,5,2.1,6.2-1.6c1.3-3.8,3.4-6.4,8-5.3c2.7,0.7,4.4,1.8,2.6,4.8c-0.3,0.6-1,1.4-0.5,1.7
			c5,3.1,0.4,6.9,0.8,10.3c0.2,1.2-1.6,2.9,1,3.8c1.3,0.4,2.5-0.1,2.3-0.6c-0.5-1.7,3.3-2.9,0.5-4.7c-0.3-0.2-0.4-0.7-0.7-1.4
			c5,1,4.7,4,4,7.5c-0.3,1.3-2.3,3.1,0.2,4.1c1.7,0.7,4.1,0,5.5-0.4c2.8-0.9,5.3-1.9,8.1-1.6c1.5,0.1,3,1.2,4.9-0.5
			c1.7-1.5,4.9-3.7,5.5,1.5c0.3,2.7,3-0.8,3.8,1.3c-0.4,2.3-2.6,0.5-3.6,1.5c0.8,6.5,10.3,3.8,11.1,10.5c0.2-2.7,3-4,2.7-7.8
			c0.7,2,1,2.9,1.4,4.2c9.6-12.8,17.7-26.2,25.4-39.8c4.3-7.5,9-14.8,13.2-22.3c2.9-5.1,5.1-10.7,8.1-15.6c2.2-3.6,2.4-9.4,7.9-10.7
			c-2.6-1.5,2.6-2.7,0.2-4.6c-0.4-0.3,2-3.2,3-4.6c2.2-3,3-7.3,5.9-9.2c2.7-1.7,4.3-3.8,5.4-6.3c0.9-2.2,2.9-0.2,3.7-1.7
			c-0.4-1-1.9,0-2.4-0.9c-0.4-0.7-2.1-0.6-1.5-1.2c0.6-0.7,1.1-1.5,1.7-2.1c0.8-0.7,1.3-0.1,1.7,0.9c0.4,1,1.3,2.5,2.5,1.4
			c1.4-1.2-0.8-1.5-1.4-2.4c2.7-0.6,5,2,7.5,0.3c-2.2-0.6-4.2-1.2-6.3-1.8c1.4-2.6,5,2.1,5.9-2l-0.1,0.1c2.3,0.5,2.1-2,3.5-2.7
			c-1.2-2.1-3.6-0.6-6.4-2.1c3,0,4.9,0,6.8,0c0.2,0,0.4-0.1,0.6-0.1c0.7-0.2,1.4-0.4,1.4-1.3c0-0.2,0-0.4,0-0.5
			c1.6-3.3,3.7,1.4,5.3-0.4c-1.1-2-3.4-1.4-5.9-2.4c2.2-0.2,3.6-0.3,5.3-0.5c-1.4-1.5-3.1-0.2-4.7-1.5c2-0.2,3.6-0.3,5.2-0.5
			c-0.5-1.6-2.2-0.2-3.3-1.6c3.3,0.8,4.8-2.3,7.4-2.9c-2.4,0.4-5.3-2-7.1,1.5c-0.2,0.4-2.3,0.6-2.2-0.7c0.1-1.1-2.4-2.7,0.4-3.3
			c0.5-0.1,0.6-3.5,1.7-0.3c0.1,0.4,1.8,0.3,2.8,0.5c0.2,0,0.4,0,0.6,0c1.2,0,2.5,0,3.7,0C850.6,491.1,850.8,491.1,851,491.1z"/>
		<path id="XMLID_501_" class="st0" d="M876.9,667c-1.9,0.6-4.2,0-2.2,3.8c2,3.8-3.8,3.7-5.3,6.1c-0.2,0.3-1.4,0.3-1.9,1.1
			c-0.2-0.8-0.4-1.3-0.4-1.4c4.4-1.8,2.9-6.5,4.7-9.6c0.9-1.4-0.3-4.4,3.1-2.3c0.6,0.4,0.4-0.5,0.5-1.1c0.7-7.2,4.3-13,9.3-18
			c0.9-0.9,3.7-0.9,1.6-3.5c-0.2-0.3,3-1.6,3.7-3.7c1.4-4.6,7.9-5.5,8.2-11.1c0-0.2,1.2-0.3,1.7-0.6c4-2.3,8.1-4.6,12-7
			c1.8-1.1,1.7-1.1-2.6-3.4c7.3-2.1,12.5-7.3,18.5-11.5c4-2.8,7.9-5.3,10.2-9.7c0.8-1.5,2.1-0.9,3.1-1.1c4.6-0.9,7.1-4.9,10.1-7.6
			c3.1-2.8,5.9-4,9.7-3.8c0,3.7,0,7.3,0,11c-1.2,1.1-5.1-2.5-4.2,2.4c0,0.1-1.2,0.7-1.6,0.6c-4.5-1.8-6.7,0.8-8.3,4.4
			c-0.2,0.3-0.9,0.7-1.1,0.6c-4.4-1.9-6.1,1.6-8.3,4.1c-0.8,0.9-1.7,0.7-2.7,1c-5.2,1.5-8.5,5.1-10.2,10.1c-0.3,1-0.8,0.8-1.3,0.8
			c-5.5,0-7.1,4.8-10,8.1c-1.4,1.6-2.2,4.4-5.1,3.9c-1.8-0.3-2.4,0.9-2.7,2.1c-1.1,4.7-5.3,8.4-8.2,10.1c-3.9,2.2-3.7,5.3-5.3,7.9
			c-0.4,0.7-0.7,0.8-1.5,0.8c-1.4-0.1,0.7-3.4-1.8-1.9c-1.2,0.7,0.9,2.2,0.2,3.5c-0.8,1.5-0.6,3.8-3.8,2.8c-1.5-0.4-3.6,1.3-6.5,2.5
			c2.5,1.1,7.2-1.3,4.4,2.9c-0.5,0.7-1.6,2.6-3,3.3c-1,0.4-1.7,1-2,1.9C878.3,667,877.9,667.3,876.9,667z"/>
		<path id="XMLID_500_" class="st0" d="M891.3,607.3c6.7-9.4,13.4-18.9,20.3-28.2c4.7-6.4,9.1-13.3,14.9-18.6
			c8.5-7.9,16.9-16.1,27.5-21.4c2.4-1.2,4.7-2.7,7.1-4c0,2.7,0,5.3,0,8c-4.4,1.1-7.9,3.4-10,7.5c-0.2,0.4-0.5,1-0.9,1.1
			c-7.1,3.1-11.4,10.1-18.3,13.4c-3.3,1.6-4.5,5.4-7.3,5.7c-1.5,0.6,0,0.9-0.6,0.5c-0.2-0.2-0.1-0.3,0.2-0.4
			c10.7-4.1,20.2-10.3,29.3-17.3c2.6-2,4.9-2.4,7.6-0.6c0,2,0,4,0,6c-7.1,3.6-14.6,6.6-21.3,10.9c-7.9,5.1-16,9.9-23.1,16.4
			c-3.8,3.5-9.1,5.6-12.8,9.7c-2.2,2.5-4.8,4.6-6.8,7.2c-1.6,2-3.4,3.4-5.9,3.9L891.3,607.3z"/>
		<path id="XMLID_499_" class="st0" d="M900.1,675.1c3.1-3.3,6-6.8,9.4-9.8c2.7-2.4,6-4.1,8.9-6.3c2.6-1.9,3.9-5.1,7.9-5.4
			c1.1-0.1,1.8-3.3,4.5-4.4c4.8-1.9,7.3-7.1,12.6-9.1c2-0.8,4.7-2.9,7.2-4.4c1.5-1,3.5-1.3,4-4.4c0.5-3,4.1-0.3,6.3-0.3c0,2,0,4,0,6
			c-1.3-0.2-2.6,0.3-2.7,1.5c-0.3,2.5-1.2,3.3-3.4,1.8c-1.2-0.8-1.7,0.3-2.5,0.8c-4.9,3.2-9.8,6.4-14.9,9.4
			c-7.9,4.7-15.6,10.2-22.2,16.9c-2.8,2.8-6.6,3.3-9.7,5.4c-1.4,1-3.1,3.2-5.7,2.1L900.1,675.1z"/>
		<path id="XMLID_498_" class="st2" d="M961,553c-6.6-1.4-9.6,4.7-14.3,7c-3.2,1.6-5.8,4.5-9.6,5.1c-1.1,0.2-2.3,1.4-3,2.4
			c-1.5,2.4-3.7,3.4-6.3,3.4c-2.3,0-4.7-0.4-4.8,3.3c0.5-4.7,3.1-7.9,6.6-9.8c3.4-1.9,5.8-2.9,8-6.2c1.2-1.8,4.2-3.5,5.1-3.7
			c6.3-1.2,7.9-7.4,12.3-10.4c2.1-1.4,3.7-2.6,6.1-1.2C961,546.3,961,549.7,961,553z"/>
		<path id="XMLID_497_" class="st0" d="M961,694c-6.7,0.5-11.5,5.3-17.3,7.9c-6,2.7-10.8,7.4-16,11.4c-2.3,1.8-5.3,3.2-8.1,4.8
			c3.6-5.4,8.7-9.1,13.7-12.7c2.5-1.8,4.9-3.1,6.9-5.7c2.2-2.8,5.8-4.8,9.1-6.3c4.1-1.8,7.6-4.5,11.6-6.4
			C961,689.3,961,691.7,961,694z"/>
		<path id="XMLID_496_" class="st0" d="M961,894c-8.9-5.9-18.2-1.3-27.4-1.3c-7.4,0-14.1,3.2-21.2,4.4c-3.1,0.5-6.1,2.2-8.7,3.9
			c-1.5,0.9-2.7,0.9-4.4,1c8.1-6.4,32.2-13.8,61.7-13C961,890.7,961,892.3,961,894z"/>
		<path id="XMLID_495_" class="st3" d="M961,494c-1.2-0.5-2.7-1.9-3.5-0.7c-3.1,4.2-5.5-0.4-8.1-0.6c-1.8-0.1-0.8-2.1-0.9-3.5
			c0-2.1,1.5-3.2,2.8-3c3.5,0.7,6.5-1.2,9.7-1.2C961,488,961,491,961,494z"/>
		<path id="XMLID_494_" class="st4" d="M961,510c-1.2-0.2-3.6,0.4-3.6-0.5c0.1-2.2,1.8-4.1,3.6-5.5C961,506,961,508,961,510z"/>
		<path id="XMLID_493_" class="st1" d="M118,344.9c-0.4-1.4,0.7-2.1,1.5-2.9c1-1,3.2-2.3-0.7-2.2c-1.3,0,0.1-1.6,0.3-2.1
			c2.1-4.9,7.3-7.4,9.8-12.1c1.9-3.6,5.7-5.9,6.7-10.2c-2.8-1-2.9,1.9-4,3.5c-0.7-3.8-0.7-3.8,7.4-14.7c-2.7,0.5-5.2-0.8-8.5,1.6
			c2.2-4.1,5.5-2.5,7.7-4c3-2,7.9-7.3,7.3-11c-0.7-5.3,4.5-6.5,6.2-10.1c1.2-0.1,2-1,2.5-1.5c-0.6,0.3-1.3,1.2-2.4,1.6
			c-4.1-3-6.5,2.8-10.7,1.9c9-5.8,17.2-12.1,24.9-19.3c-3.4-1.7-3.8,3.5-6.7,2.2c1-5.7,7.8-5,11.1-9.8c-3.8,0.8-5.8-1.2-8.1-2.5
			c3.8-1.3,7.4-3.1,11.5-3.9c-1.1,0.1-2.2,0.3-3.2,0.4c-1.4,0.2-2.8,0-3.5-1.3c-0.7-1.4,0.8-1.9,1.4-2.8c0.7-1,3.4-1.8,0.7-3.5
			c2.2,1,1.4-5.8,5.1-1.8c1.3,1.5,9-2.9,10.3-6.1c1.4-3.5,4.1-5,7-6.9c3.3-2.1,5.3-5.8,8.8-8c-2.6-2.7-4.4-2-5.3,1.6
			c-2.4-1.4,0.2-4.3-2.2-5.3l0.1,0.1c1.9-1.3,3.3-3.6,6.4-2.2c1.3,0.6,3.5-0.7,4.1-2c1.7-3.7,6.3-6.2,4.6-11.3
			c-0.6-1.9,1.3-1.8,2.1-2.1c5.5-2.3,8.2-7.3,9.9-12.3c0.9-2.5,5.7-2.3,3.5-6.5c1.4,2.2,2.1,4.6,6.2,2.8c-1.9,1.6-2.8,2.2-3.7,3
			c1.6,1.4,2.6,0.4,3.7-0.5l-0.1-0.1c0.1,0.2,0.1,0.3,0.2,0.5c1.4,2.4-4.5,2.1-1.9,4c1.8,1.3,5,0.9,7.6,0.8c1.6,0,3.1-0.9,4.2-2.3
			c-0.9-1.1-3.1-0.1-3.4-2c0.9-2,8,0.2,3.7-5.4c1.4-0.7,0.6-4.9,4-2.6c1.8,1.2,2.3-0.5,3.2-1.3c1.2-1.1,1.3-2.5,0.1-3.4
			c-2.9-2.2-4.6-5.3-6.8-8.1c-0.6-0.8-0.2-1.1,0.4-1.8c3.6-5,8.9-6.3,14.4-7.2c0.2,3.1-2.5,2.9-4.2,3.8c-3.8,2-3.8,3.5-0.2,6.2
			c0.2-2.5,0.9-4.7,3.2-5.9c1.9-1,2.4-2.1,1.1-3.9c0.1-1.2,1.8-2.1,2.1-2.1c3.6-1.1,5.7-0.9,2.7-6.4c-2-3.7-0.4-10.6,0.2-16.1
			c0.3-3.1,7.3-6.4,10.6-5.4c1.2,0.4,2.4,0.3,2.3-1.5c-0.6-6,4.5-7.7,8-10.6c1-1,1.8-2.2,3.2-2.7c1.6-1.1,3.2-2.1,4.8-3.2
			c4.6-3,7.5-7.9,12.1-10.9c4-2,7.9-4.1,11.9-6.1c1.7-0.6,3.4-1.1,5.1-1.9c1.8-2.9,3.6,2.8,5.2,0c1.1-1.8,1.3-4.6,2.8-5.4
			c5.1-2.8,10.6-4.9,16-7.2c0.4-0.2,0.9-0.3,1.3-0.2c1.2,0.4-0.2,3.3,2,2.5c3.2-1.1,7-1.9,9.1-4.2c8.8-9.8,20.2-11.9,32.4-12.7
			c5-0.3,10.2-0.1,15.1-1.9c2.9-1.1,6-0.4,9-0.4c0.7,0.1,1.4,0.2,2,0.4c1.9-0.8,3.9-1,5.8-1.5c1.9-0.1,3.8,0.3,5.6-0.4
			c6.8,1.1,13.7,2.3,20.5,3.3c3.8,0.6,7.8,2.5,11.5,1.4c3.9-1.2-0.7,3.2,1.7,2.2c4.6-1.8,8,2.6,12.1,2.6c4.5,0,7.1,3.5,11,4.6
			c7.2,2,14.3,4.5,21.4,6.8c0,1.8-1.8,0.6-1.9,1.4c-0.2,1.2,1.2,1.2,1.8,1.4c5,1.8,9.6,4.3,13.3,7.9c1.8,1.8,4.1,2.7,5.7,2.8
			c3.8,0.2,3.9,2.7,4.2,5c0.1,1-0.1,2,0.9,2.2c5.2,1.5,8,7.2,13.7,7.8c2.6,0.3,2.7,2.8,3.8,4.4c3.5,5,9.7,5.9,14.2,9.4
			c4.1,3.2,8.6,5.9,13,9c-1.6,1.3-2.4,0-3-0.4c-4.5-4.1-7.4-1-10.4,2.1c-0.8,0.8-0.4,1.7,1.6,1.8c3.2,0.1,5.7,1.8,8.4,3
			c0.9,0.4,1.8,0.8,1.3,1.6c-3.3,4.7,2.2,5.2,3.7,6.1c7.6,5,15.4,9.6,21.2,16.8c5.1,6.4,12.3,10.6,17.6,16.6
			c2.4,2.7,3.8,6.2,5.7,9.4c-2,0.1-4-1.5-5.5,0.5c-1.4,1.8,0.6,2.9,1.1,4.3c2.2,5.5,3.8,11.4,9.4,14.8c0.3,0.2,0.8,0.6,0.8,1
			c0.4,3.9,1.8,6.5,5.1,9c0.4,0.3,0.9,0.6,1,0.9c0.7,6.1,4.6,11.2,5.4,17.1c0.3,2.2,2.1,1.8,2.8,3.2c2,3.8,3,8,5.8,11.6
			c1.1,1.5-0.5,5,0.5,6.8c2,3.7,1.2,8.6,4.9,11.4c0.9,0.7-0.4,0.8-0.5,1.1c-0.7,2.4-1.5,5,0,7.2c4,5.8,2.9,13.9,8.7,18.8
			c-1.3,6.3,3.9,10,6,14.9c1.2,2.8-0.9,6.3,2.2,8.5c-1.1,0.6-2.2,1.2-4,2.2c4.4-0.2,4,3.5,5.1,5.5c2.4,4.5,5.7,8.6,6.6,14
			c0.8,5,1.6,9.7,6.2,13.7c2.7,2.3,3.8,7.2,6,10.8c2.5,4.2,6.1,7.8,7.4,12.7c0.4,1.4,1.9,1.5,3.2,1.7c1.7,0.4,3.6,1.2,1,3.4
			c-1.1,0.9-0.4,2.3,1.4,2.8c1.8,0.5,3.4,2.2,3.2,3.7c-0.4,2.6,0,3.4,2.6,3c0.4-0.1,1.3,0.3,1.3,0.4c-0.1,5.6,4.9,9,6.2,13.9
			c0.2,0.9,0.7,2.3-1.2,2.7c-1,0.2-1,1.5-0.1,1.8c8.3,2.5-0.5,4.2,0.2,7c2.1,0.9,4.5,2.6,3.2,6.2c-1,0.8-2.1,1.4-2.9,2.4
			c0.9-0.9,2-1.6,2.8-2.6c0.7,0.3,1.5,1.1,2.1,0.9c1.1-0.3,1.6-0.6,2.3,0.8c1,2-1,1.5-1.3,1.6c-3.3,1-1.2,4.3-2.7,6
			c2.4,0.5,4.4,2.3,1.1,3.3c-3.1,0.9-0.2,4.5-3.1,4.6c0.1,0.4,0.3,0.8,0.4,1.2c2.6-2,3.5,1.9,5.6,1.8c0.9,0,1.7-1.4,2.4-0.3
			c0.5,0.8,0.1,1.8-0.7,2.7c-0.8,0.8-1.1,2-1.9,2.8c-1.4,1.5-1.2,1-1.7-0.7c-0.6-1.9-2.9-3.5-5.5-3.4l0.1,0.1c1-2-2.5-4.6,2.1-6.4
			c-5.2-0.5-6.5,5.2-10.8,4.2c0.2-1.6,1.7-0.4,2.4-1.4c-3.3-2.6-6.6-5.1-10.3-0.5c-1.1-2,1.2-2.3,1.3-3.6c-1.5-1-2.8,1.9-4.4,0.3
			c0.2-2,3-1.2,3.3-3.4c-3,1.4-6.1,0.6-9.5,0.5c1.8-1.4,3.4-2.6,5-3.7c-4.2,2.2-7.3-1.2-10.8-1.6c-6.7-0.7-10-4.8-13.4-9.4
			c-0.3-0.4-0.6-0.9-0.9-0.9c-3.6,0-5.4-3.3-8.5-4.5c-3.9-1.6-6.8-5.4-11.8-3.7c-2.3,0.8-2.4-2.5-4.7-3.4c-3.3-1.2-7.9-2.4-9.6-6.6
			c-1.1-2.9-3.8-4.5-5.7-6.7c-1.2-1.4-2.2-2-3,0.5c-0.4,1.2-1.7,1.8-2.9,1.3c-1.5-0.6-0.5-1.5,0.1-2.3c-0.9-0.7-0.7-1.9-1.8-2.7
			c-6-3.9-12.2-7.4-17.8-11.8c-5.2-4-10.2-8.4-16-11.7c-5.4-3.1-11.1-4.9-17-6.3c-10.6-2.4-21.1-1-30.9,3.4
			c-5.1,2.2-10.3,4.5-12.1,11.4c-0.8,2.9-3.6,5.8-4.9,9.3c-3.9,11.2-2.1,22.1,1.4,32.8c0.8,2.5,0,5.3,2.2,7.6c2.6,2.7,6.3,4.6,7,8.9
			c0,0.3,0.9,0.7,1.3,0.5c5.3-1.9,10.8-0.4,16.2-1.1c0.6-0.1,1.7-0.8,1.6-0.9c-1.1-3.2,2.2-1.3,3-2.9c-4-5.3-10.4-7.8-16-11
			c-7.4-4.1-12.3-13.2-11.1-21.7c0.2-1.3,0.1-2.7,0-4c0-1.7-0.3-3.7,1.5-4.3c2.2-0.8,2.9,0.4,1.9,2.5c3.3-0.9,5.8,1.7,9.1,1.6
			c6.7-0.2,18.6,7.6,18.3,16.4c-0.1,1.6-3.1,2.7-3.3,5.2c3.4,0.5,7.1,0.7,10-1.1c6-3.7,11.9,0.2,17.8-0.5c0.9-0.1,2,1.6,2.9,2.5
			c2.3,2.4,4.6,4.4,8.4,4.4c3.8,0,3.9,3.4,4.8,7.4c-1.9-2.3-2.6-4.2-4.5-4.5c-2-0.4-2.3,2.8-4.9,2.2c-1.2-0.3-3,2.1-4.6,3.3
			c0.4,1,1,1.6,2.1,1.5c4.2-0.4,8.4,0.7,12.6-0.3c1.6-0.4,1.5,0.9,2,1.7c3.9,7.6,1.9,17.5-4.9,22.9c-6.4,5.1-10.8,11.6-12,19.7
			c-0.8,5.3-0.7,10.8-1.2,16.2c-0.3,3.1,0.9,5,3.3,6.5c-2.8,0.1-6.7,2-5.1-4c-1.4-0.2-1.1,0.6-1.1,1.1c-0.1,0.6-0.2,1.3-0.3,2
			c-0.3,1.7,0,3.4,1.2,4.7c1.5,1.6,2.7-0.3,3.8-0.8c2.7-1,5-3.1,8.2-2.6c2,0.3,2.3-1.1,2-2.4c-0.5-1.8,1.7-4.5-1.4-5.5
			c-4.3-1.5-5.1-5.1-0.9-7.9c3.4-2.3,2.8-7.8,7.7-8.3c0.9-0.1,0.1-0.7-0.1-1c-3.2-4.5,0.4-6.9,3.4-7.4c3.1-0.6,2.9-3.9,5.3-4.4
			c0.3,0.3,0.6,0.5,0.8,0.6c-1,1.2-1.6,3.8-1,4.1c2.7,1.4,1.7-2,2.7-2.6c4.5-2.6,1.5-4.7,0-7.4c-0.9-1.5-1.4-3.8-1.1-5.5
			c1-5.6-0.8-10.9-1.4-16.3c-1.5-14.1-9.6-23.8-20.3-32.1c-3.7-2.9-7.4-5.8-11.5-8.2c-1.7-1-2.9-4.2-2.8-6.3c0.2-2.2,2.5-2,5-1.7
			c6.1,0.7,10,4.7,14.9,7.4c6.4,3.6,8.5,10.3,13.7,14.4c1.8,1.4,0.6,3.7,1.9,5.4c1.1,1.5,1.2,3.8,3.7,4c1.1,0.1,1.5,0.5,0.6,1.4
			c-0.3,0.3-0.1,2.9-1.3,0.4c-0.2-0.4-0.8-0.7-0.8,0.2c0,0.6-0.1,1.5,0.3,1.8c3.7,3.2,4.6,7.4,4.6,12c0,7.3,0.5,14.7-0.2,21.9
			c-0.6,5.6-0.2,11.2-1.5,16.9c-0.9,3.9-4.1,5.8-5.5,9c-0.3,0.8-1.2,0.6-1.9-0.3c-1.2-1.5-2.5-2.2-3,0.5c-0.3,1.5-0.9,1.5-2,0.8
			c-1-0.6-2.9-1-2.8,0.3c0.1,2.4-3.5,3.3-1.8,6.2c2.8,4.8,4.3,0.7,6.1-0.8c1.4,1.8-0.1,3.9-0.6,4.1c-5.4,2.5-4.6,7.3-5,11.9
			c-0.3,3.3-3.4,5.1-5.3,7.5c-0.9,1.1-1.9-0.5-2.5-1.5c-0.1-0.3,0.4-0.8,0.5-1.3c0.2-1.6,0.1-1.6-1.5-1.1c-0.8,0.2-1.4-0.7-0.9-1.4
			c0.7-1,3.1,0.5,2.7-1.8c0-0.3-1.4-0.7-1.7-0.5c-1.5,1.1-3.9,0.3-4.7,2.2c-0.4,1.1,1.6,0.4,1.6,0.8c0.2,1.6,0.3,3.3-1.1,4.4
			c-2.9,2.4-3.1,5-0.4,7.5c4.5,4.2,5.1,8,0.8,11.7c-1.6,1.3-2,3-3.1,4.4c-2.8-3.5-6-6.2-9.8-8.1c-1.7-0.8-1.5-2-2.1-3.2
			c-2.3-4.6-0.9-11.2-6.9-14c-0.6-0.3-1.4-1.3-1.3-1.9c0.3-2,2.6-0.2,3.9-2c-4.8,0.5-5.7-6.7-11-4.5c-0.1,0-0.9-1-0.9-1.5
			c-0.1-0.9,0.8-0.7,1.4-0.9c1.5-0.5,3.8,1.4,4.4-1.5c0.6-2.6-2.5-1.4-3-2.8c-0.5-1.4-4-2.6-0.1-4.2c0.1,0,0.1-1.1-0.2-1.3
			c-3.5-2.2-2.1-5.9-2.5-8.9c-0.4-2.8-0.1-2.8,2.9-3.4c0.4-0.1,0.9-0.5,0.9-0.8c0.8-3.4,2.7-4.6,6.1-3.6c0.7,0.2,2.3-2.3,1.9-3
			c-1.8-2.9-1.1-6.8-3.9-9.3c-2.2-1.9-3.2-4.6-4.5-7.1c-0.9-1.8-1.7-4.4-4.3-4c-2.3,0.3-1.8,3-2.6,4.6c-1.3-0.3-1.3-1.6-2.4-2.6
			c-1,2.9,2,8.6-4.9,7.2c1.4,0.6,2.7,1.2,4.4,2c-1.3,1.2-3.3,0-4.2,1.5c-0.2,0.3-1.1,0.4-1.1,0.6c-0.3,2.8-2,3.6-5.8,2.7
			c-6.3-1.5-6.3-1.5-7-6.4c-1.9,0.9-4,4.5-5.6-0.1c-0.4-1-1.6-1-2.1-0.6c-3.6,2.9-8,4.6-11.6,7.8c-2.5,2.3-0.1,4.1-0.7,6.2
			c-1.5,5.1,4.1,7.9,4.5,12.4c3.9-0.8-0.8,4.4,2.7,3.9c0,5.3,7.9,6.7,6.3,12.8c-0.1,0.4,1,1.7,1.6,1.7c2.8,0,2.7,1.1,1.3,2.9
			c-1.7,2.3,0.7,3.7,1.1,5.6c0,0.2,0.4,0.5,0.7,0.5c3.5,0.8,6.8,4.6,7.3,8.7c0.3,2.6,3.3,3.1,4,6.1c-3.6,0.8-6-0.5-7.6-3.7
			c-0.7-1.4-0.5-3.9-3.3-3c-3.2,1,0.8,2.5-0.2,3.9c-0.8,1.1,1.8,3.1-0.8,4c-2,0.6-3.8-0.1-4.7-1.9c-2.2-4.4-6.9-6.7-9.2-11
			c-0.6-1-1.6-1.2-2.6-0.9c-1.1,0.3-0.8,1.3-0.8,2c0,2.2-0.1,4-3.1,4.6c-3,0.6-4.5,0.4-5.3-3c-0.2-1-1.9-2.7-3.3-3.8
			c-0.7-0.5-1.3-1.3-2.1-0.4c-0.5,0.6-0.6,1.5-0.9,2.2c3.9,0.9,2.4,6.6,8,7c-4.3,2.5-7.7-0.4-10.6,1.3c0.5-2.7-1.2-4.7-2.8-6.2
			c-3.3-3.1-7-5.8-10.6-8.6c-0.2-0.2-0.9,0.4-1.3,0.3c-2-0.5-1.6,3.7-4,2.1c-3.2-2.1-6.7-4.1-9.4-6.7c-1.3-1.2-2.3-2.4-4.4-3
			c0,3.1,0,5.9,0,8.7c-2.1,0.1-0.5-2.1-1.8-2.4c-0.5-0.1-5.3,2.4-0.9-1.3c0.8-0.7-0.5-1.5-1.1-1.6c-1.6-0.2-3.3-0.8-4.7,0.7
			c-0.8,0.8-1.7,2-2.7,2.1c-6.8,0.5-9.7,6.3-13.9,10.2c-5.1,4.7-10.3,9.9-12.6,16.5c-1.2,3.4-3.3,6.6-3.4,10.4
			c-0.2,3.5-0.7,0.6-1.5,0.3c-1.1-0.4-2.1,0.2-2.1,1.7c0,1.7-4.5,2.3-1.1,4.8c1.7,1.3,5.1,2.2-0.3,3.6c-2.5,0.7-5.3,3.4-7,6.1
			c-0.4,0.7-1.5,1.3-0.8,2.1c3.1,3.7-0.7,6.2-1.2,9.3c-0.6,4-5.3,6.2-4.1,10.6c-3.3,0.2-2.1,7.6-7.5,4.6c-0.8-0.5-2.4-0.2-3.3,0.4
			c-4.2,2.6-8.6,5.3-10.1,10.4c-0.5,1.8-2.7-0.5-3,1.8c-0.4,3-1.8,5.9,0.8,8.6c1,1,1.8,2.1,1.5,3.6c-2.3-1.5-3.1,3.2-5.6,1.4
			c-1-0.7-2.4-1-3.5-1.7c-2.3-1.5-3.8-1.6-5.7,1.1c-3.1,4.4-7.1,6.8-13.2,4.6c-4.1-1.5-8.1,1.3-11.9,3c-4.5,2-8.8,4.5-13.2,6.9
			c-0.7,0.4-1,0.6-1.6,0c-1.2-1.4,0.4-0.9,0.8-1.3c2.8-2.8,7-4.4,9-7.4c3.5-5,8.6-6.5,13.4-8.8c4-1.9,3.7-5.4,2.6-7.9
			c-1.2-3-1-4.4,1.8-5.7c0.5-0.3,1.6-0.9,1.1-1.7c-0.2-0.4-1.5-0.1-2.3-0.1l0.1,0.1c-0.8-2.5-3.3-4.6,2.2-6c3.9-1,7-5.3,11.9-4.6
			c-0.5-4.6,5.3-5.8,5.5-10c0.1-2.7,0.3-5.3,4-5.4c0.5,0,1.8-0.1,1.3-2.1c-0.7-2.8,2.5-5,4.7-3.8c1.1,0.6,2.1,0.5,1.9-0.9
			c-0.3-2.9,1.4-2.8,3.4-2.6c1.5,0.2,7.4-5,7.5-6.4c0.2-2.2-3.1,0-2.8-2.4c0.3-3-1.1-2.8-2.7-1c-1,1-1.4,0.2-1.8-0.4
			c-0.6-0.8,0.4-1.4,0.8-1.5c1.1-0.3,2.2-0.4,3.4-0.6c-1.3-2.2-3.2-2.7-5.1-1.7c-4.7,2.4-2-3.6-4.3-3.6c0.6-0.5,1.6-1.5,1.9-1.3
			c1.9,1.2,4.2,0.9,4.4-1c0.3-3.2-2.8-1.3-4.5-1c0.3-2.6,2.3-3.1,2.9-2.9c5.3,1.2,10.9-3.8,16.2,0.7c0.6,0.5,2.9,1,3.2-1.7
			c0.2-1.5,0.9-3.6,3.5-2.3c0.3,0.1,0.8-0.3,1.2-0.4c-3.1-4.1,3.4-1.4,2.5-4.3c-0.6,0-1.5,0.1-2.2-0.1c-1.4-0.4-4,1.4-3.9-1.3
			c0.1-1.6,0.2-4.6,3.3-4.7c2.4-0.1,1.2-1.8,1.4-2.9c-0.1-0.7-0.1-1.4,0-2.1c0.3-3.8,5.4-3.4,5.7-7.2c1.9,0.8,1.2,4.7,3.7,3.1
			c1.6-1,5.3,0.5,4.9-3.8c-0.3-2.9,3.3-3.4,5.2-5c2.7-2.3,1.5-3.9-0.8-4.9c-1.3-0.6-2.3-1.6-0.8-1.8c3.8-0.8,2.9-2.7,0.9-3.8
			c-4.6-2.6-4.9-6.1-3.2-10.4c0.4-1,0.8-2.2,0.2-2.7c-4.1-3.3-5.5-9.2-10.5-11.5c-2.2-1-2.3-1.7-1.3-3.5c0.3-0.6-0.5-1.7-0.9-2.7
			c1.6-0.6,2.1,2.4,3.7,1.1c0.6-0.5,1.1-2,0.9-2.1c-1.1-0.9-2.2-1.7-3.8-1.6c-1.5,0.2-2.3-0.1-3-2c-1.4-3.7-6.8-3.1-8.8-6.8
			c-0.3-0.6-1.1,1.9-0.8,2.1c1.7,1,2.1,3.7,4.7,3.5c-8,2.9-13.4-2.9-20-6.1c3.7-1.1,3.3-2.4,1-4.4c-2.7-2.3-5.3-4.8-7.5-7.5
			c-2.7-3.4-6.9-4.3-10.1-6.8c-2.5-1.9-3.1,1.4-4.1,3c-0.5,0.8,1.5,1.1,0,2.3c-2.5,2.1-4.3,4.5-6.2-0.6c-1-2.6-2.9-4.9-4.3-7.3
			c-1.7,0.8-1.5,2.4-1.6,3.9l0.1-0.1c-4,0.2-4,2.4-2.5,5.2c0.1,0.1,0.3,0.3,0.3,0.4c0.1,2.4,3.9,5.2,0.9,6.6c-2.2,1-2.7-3.1-3.1-5.2
			c-0.7-3-3.9-2.5-5.7-4.8c3.8,0.3,2.7-1,2.3-3.6c-1-6.8-4.5-11.3-9.9-14.9c-2.1-1.4-1.6-3.9-1.6-6c0-1.8,0.2-3.6,0.3-5.4
			c-4.2,0.5-4,5.3-7.2,6.9c-0.5-4.7,1.1-8.6,2.1-12.7c0.3-1,1.7-2.8-0.4-3.1c-1-0.1-2.8,1.4-2.4,3.1c0.5,2.5-1.4,3.6-2.4,5.3
			c-0.7,1.1-1.9,1.7-3,1.1c-1.3-0.7-0.9-2-0.1-3c2.1-2.8,1.4-4.7-1.8-6c-0.6-0.2-1-0.8-1.5-1.2c-0.9-0.7,0.6-3.3-1.8-2.5
			c-2.5,0.8,0.3,2.8-0.8,4.4c-4.1-1.2-6.9-5.3-11.4-5.8c1.1,3.3-2.6,3-4.2,4.6c-4.7,4.4-7.5,10.4-12.2,14.6c-3.2,2.9-2.1,7.1-4.8,10
			c-1,1.1-1.2,2.8-2.9,3.5c-0.8,0.3-1.9,1.7-0.6,2.2c3.4,1.3-0.6,3,0.4,4.3c-5.8,3-2.5,9.4-5,13.7c-3.5,6-2.1,13.2-4.7,19.5
			c-0.8,2-2.4,2.8-3.4,4.2c-4.7,6.3-2,13.3-2.6,20c-0.1,0.8,1.5,1.8,0.2,2.4c-4.1,2-1.5,5.1-1.5,7.8c0,3.8,1.6,5.5,5.6,4.8
			c0.7-0.1,1.9,1.1,2,2.6c0.2,1.9-0.7,2.9-2,3.7c-1.2,0.8-3.1-0.5-4.3,1.8c0.4,0.7,3.8-0.1,2,3.1c-1,1.8,2.5-1.2,3.3,0.9
			c-2.2,2.3-2.4,4.9-0.5,7.6c-0.9,0.3-1.8,0.5-2.9,0.4c1.1,0.4,1.9-0.1,2.7-0.6c1.1,0,2.2,0,3.9,0c-3.4,1.7-4.1,4-3.2,7.4
			c0.3,1-0.8,2.3-1.4,3.9c-3.2-2.6-3.8-7.1-8.2-8.5c-0.2,1.8-0.3,3.4-0.5,5.1c-3.3-0.5-4.8-1.9-5.1-5.4c-0.1-1.6-6.4,1.3-4.3-4.1
			c1.2,0.3,0.1,1.6,1.2,2.2c0.5-2.1,1-4.1,1.5-6.2c-2.6,0.8-4.4,2.2-5.4,4.6c-12.2-15.7-16.7-34.8-25.6-51.9c-2.8,0.9-6.4,1.3-2.7,6
			c2.5,3.2-3.4,4.1-2.6,7.1c-3.5,0.9-1.9,2.6-0.3,3.7c2.6,1.9-0.4,2.8-0.8,3.4c-1.3,1.7-2.2-0.8-3.4-0.9c0.7-1.3,0.3-2.3-1.1-2
			c-0.7,0.1-1.7,1.2-0.8,2.3c1,1.3-0.7,1.8-0.7,2.8c-0.4-1-1.7-1.5-0.9-3.1c0.5-1,0.8-2.4-0.5-3.6c-3.1-2.9-4.9,0.8-5,2
			c-0.7,5.9-4.1-1.4-5.1,1.3c-0.1-2.1-1.2-4.1-3.1-3c-0.9,0.5-0.4,4,1.4,5.6c0.3,0.3,0.5,0.8,0.6,1.1c-0.7,1.2-1.1,0.2-1.5,0
			c-4.6-3.1-4.9-3.2-5.5-1.8c-1.1,2.9-5.3,1.7-5.6,3.1c-0.9,4.3-2.9,8.7-1.2,13.4c0.7,2.1,2.6,3.9,1.8,6.5c-0.5,1.7,1.4,3.7-0.5,5.3
			c-0.6-2.4-4.5-1-4.6-4c0-0.2-0.8-0.4-1.1-0.6c-2.6,1.9,1.5,3.6-0.1,5.4c-2.1-1.1-1.9-0.8-2.9,1.5c-0.8,1.6-3,2.3-5.1,1.5
			c0.1,0-0.2-0.4,0.1-0.1c0.2,1.2,0.5,2.4,0.8,3.6c-0.7,0.5-1.2-0.2-1.7-0.3c-1.4-0.3-2.9-2.9-4.1-0.5c-0.7,1.5-0.6,3.7,1,5.3
			c1.2,1.2,1.4,1.7,2.8,6.8c-2.5-3.5-4-6.8-8-6.8c2.4,1,2.6,3.7,4.3,5.3c-2.9-0.3-3.2,0-3.2,2.6c0,0.5,0.1,1-0.6,0.9
			c-0.6-0.1-1.7-0.4-1.7-0.5c1.4-6.2-5.1-8.4-6.8-13.7c-1.5,4-1.4,7.1,1.9,9.6c1.2,0.9,0.8,2.6,0,4.1c-0.7,1.3-2.1,2.6-0.9,4.5
			c1,1.6,1.5,3.5,2.3,5.3c0.6,1.3-0.1,2.1-1,2.3c-1.3,0.2-0.5-1.1-0.8-1.7c-2-4.8-4-9.7-6.5-14.4c1,2.4-2.7,5.5,1.8,7.6
			c2.2,1.1-0.2,3.1-0.4,3.9c-6.9-1.5-5.2-10.4-11.2-13.3l0.1,0.1c0.2-3.4-3.1-4-4.8-5.8c2.3-2.5,3.7-5.3,2.4-9.1
			c-1.5,0.9-0.9,2.1-0.8,3.1c0.1,1.4,1,3.4-0.8,3.9c-1.7,0.4-3.3-1.1-4.2-2.7c-0.6-1.1-0.3-2.7-1.6-3.4c-1.3-2.8-1.2-5.7-1.1-7.6
			c-0.3,2.1-0.4,5.2,1.5,8c-0.2,3.8,4.4,4.6,4.9,7.9c-1.5,1.2-2.5,0.2-3.4-0.9c-1.5-1.8-2.7-1.4-3.5,0.6l0.1-0.1
			c-0.9,0.3-1.8,0.7-2.4-0.7c-0.4-1-1.1-2.4-2-2.7c-5.7-1.8-5.3-8.6-9.8-11.3c-2.1-1.3-0.1-3.6-1.3-5.1c1.6-2.3,4.6-4.2,3.1-7.8
			c0,3-2.6,5-2.9,7.9c-1.8-1.1-4.7-1.2-4.5-4.2c0.1-0.9,2.9-1.8,0.4-2.9c-3.2-1.4-1-4.4-2.6-6.6c-2.6-3.6-3.5-4.3-7.3-0.4
			c0-3,0.7-5.4,1.7-8.5c-2.3,1.3-2.4,3.8-5.2,4.3c3.1-4,3.4-6.9-2.6-6.9c1.4-1.2,2.8-1.9,3.5-3c0.6-1,2.2-2.3,1.2-3.4
			c-1.8-2-1.4,2.3-3.5,1.1c2.9-3.8-0.6-8.1,0.7-12.2c0.7-2.3-3.7-0.3-3-3.3c0.6-3.2-0.5-6.6,1.1-9.7c1-2,2-4,3.1-5.9
			c1.2-2.2,1.2-2.3-1.3-3.5c-0.8-0.4-0.8-1.4-0.6-1.5c3.8-0.5,2-4.9,4.7-6.5c3.5-2,2.1-6.3,2.8-9.4c1.3-5.9,5.3-11.1,4.3-17.5
			c5.5-2.3,0.1-9,4.8-11.8c0.6-0.4,1-3-1.7-1.9c0.8-2-3.3-0.1-1.8-2.1c1.8-2.4,3-4.4,3-7.8c-0.1-2.8,2.5-5.7,4.2-8.4
			c1.6-2.7,1.6-2.5-0.2-5c-0.2-0.3-1.8-1.4-0.2-2.2c4.8-2.1,5.2-6.3,5.5-10.8c0.1-1.7-0.3-3.9,1.9-5.2c0.9-0.5,1.1-1.4-0.4-2.1
			c-1.5-0.7-1.4-1.9-0.1-2.9C118.2,346.6,118.6,346.2,118,344.9z"/>
		<path id="XMLID_492_" class="st0" d="M471,992.2c3.4,1.2,7,0.4,10.4,1.8c2.7,1.1,3.3-1.9,4.8-3c1.9-1.4-0.3-2.1-0.8-3
			c-1.3-2.2-0.3-5.9-5.4-6.2c5.5-3.1,10.6-3.7,15.2-4.5c14.2-2.5,28.5-4.9,42.9-6c12.2-0.9,23.7-5.1,35.8-6.2
			c6.1-0.6,13.9,4.6,16.4,11.9c3.1,8.9,8.7,15.5,16.8,20.1c6.2,3.5,9.9,10.6,17.5,12.4c0.9,0.2,1.4,2.3,0.4,3.7
			c-1.2,1.6-2.6,1.4-4.4,1c-7.9-2-14-7.4-21-11.1c-5.5-3-5.5-3.1-7.7,2.9c-0.4,1.1-1,2.2-1.6,3.4c-3.5-2.5-4.2-6.8-8.1-8.7
			c-2.3-1.1-4.7-2.5-6.2-0.8c-2,2.4-5.6,4.8-3.9,8.8c0.8,1.9,0.7,3.5,0.5,5.8c-2.3-2.1-4.8-0.7-7.2-1.2c-1.6-0.3-3.1,1.3-3,2
			c0.2,6-4.2,3.8-6.9,3.8c-4.4,0-9.1,1.2-14.1-1.7c2.3-0.2,3.7-0.3,5.2-0.4c-4.6-1.9-9-4.7-14.3-2.7c-4.3,1.6-8.6,2.7-12.8-0.2
			c-0.4-0.3-0.8-0.6-1.2-0.9c-1.9-0.9-4.7-2.2-5.7-0.6c-0.7,1.1-0.6,4.2,1.4,6.2c1.7,1.8,3,4.1,4.1,6.3c3.3,6.7,10.2,5.2,15.6,6.9
			c6.5,2,13.4,1.1,20.2,1.3c4.7,0.2,9.4,1.9,14.2,3c-0.2,6.2-1.2,6.8-7,6.8c-4.6,0-9.1,0.1-13.5-1.6c-1.8-0.7-3.1,0.7-4.7,1.2
			c-2.6,0.9-5.6,0.8-6.3-2.1c-1.6-6.3-5.6-6.7-10.7-5.4c-1.3,0.3-2.6,0.7-3.9,0.9c-7.5,0.9-8.9,0.2-9.7-7.2
			c-0.3-3.4-2.7-6.1-2.4-9.5c0.1-0.6-0.1-1.7-0.8-1.5c-4.6,1.4-6-1.8-8-4.8c-1.1-1.7-3.4-1.1-5.2-0.9c-5,0.6-8.1-2.4-9.7-6.2
			c-1.1-2.9-2.5-3.1-4.8-2.5c-0.3,0.1-0.6,0.3-0.9,0.3c-3.2,0.4-6.9,2-9.3-1.1C468.9,999.5,469.6,995.7,471,992.2z"/>
		<path id="XMLID_491_" class="st1" d="M459.7,721.3c4.9,6.1,11.8,9.5,18.4,13.2c4.1,2.3,8.4,2.1,12.7,0.2c1.2-0.5,2.6-2.6,3.9-0.4
			c0.9,1.6,0.8,3.9-1.4,4.6c-3.1,1-2.6,3-2.3,5.3c0.2,1.3-0.2,3,1.3,3.4c1.3,0.4,1.5-1.3,2-2.2c1.8-3,2.8-0.1,3.8,0.7
			c3.5,2.8,3.5,5.2,0.2,8.2c-4.3,3.8-6.5,9.3-10.3,13.6c-8.8,9.7-15.5,20.9-24,30.8c-7.3,8.4-15.9,10-26,6.9
			c-6-1.8-12.2-2.1-18.3-2.4c-6.4-0.3-12.6-1.5-18.9-2c-2.4-0.2-2.3-2.5-3.5-3.6c-0.9-0.8,1-1.8,1.5-2.7c3.2-5,9-4.8,13.7-6.4
			c10.5-3.5,20.3-8.4,30.1-13.4c7.2-3.6,11.5-9,12.5-17.1c0.4-3.4-0.1-6.4-2-9.3c-4.3-6.4-8.3-13-12.5-19.5c-2.3-3.5-1-5.8,2.4-7.5
			c2.5-1.3,5-3.1,6.5,1.3c0.3,0.8,1.3,1.4,2.1,2.1c1.7,1.7,3.2,4.2,6.2,2.7c2.6-1.3,2.7-3.9,2.2-6.5L459.7,721.3z"/>
		<path id="XMLID_490_" class="st1" d="M353.1,552.1c-2.7,1-4.4,3.7-7.5,4.1c-1.1,0.1-1.4,3.9-0.8,5.2c1.5,3.2-2.6,4.6-2,7.4
			c-2,0.3-2.9-2.3-3.6-1.7c-1.5,1.2-3-1-3.9,0.2c-1.3,1.7,1.5,1.2,1.6,2.3c0.1,1.3,0.2,2.7,0.1,4c0,0.8,0.5,2.3-1.1,2.2
			c-1.1-0.1-2-0.8-1.1-2.4c0.6-1.1-0.9-2.6-1.6-1.9c-2.1,1.9-3.9,4.1-7.1,3.9c0.7,3.5-3.2,2.6-4.5,4.7c-1.9,3.1-1.5,7.1-4.5,9.7
			c-0.7,0.7-0.5,2.3-2.4,2.1c-2.1-0.2-2.1-0.8-1.2-2.5c0.2-0.4-0.6-1.4-2.1-0.8c-2.2,0.8-4.7,0.9-7.1,1.3c-7.5,1.3-10.6-1.2-8.2-8.4
			c1.6-5.1,0.1-9.7,0.5-14.5c0.2-2.4-1.7-4.9,1.1-7.4c1.1-1-0.2-1.4-1.3-0.2c-0.4,0.4-6.6-7.8-6-8.3c2.9-2.6-1.2-3.2-1.2-5
			c2.8-0.3,4.7-5.3,8.3-1.5c1.7-3.8,3.2-3.3,4.6,2.2c0.7-6.9,4.8-8.8,8.5-11.1c0.5-0.3,1.5-0.8,1.7-0.6c4.2,4.5,9.3-0.5,13.9,1.1
			c1,0.3,5.4-1,7.2-2.7c3.7-3.3,5.6,0.2,7.1,1.8c3.2,3.5,11.3,4.6,14.2,0.8c2-2.6,3.5-3.4,5-0.4c1.1,2.2,1.7-0.1,2.6,0.1
			c1.5,0.4,2.9-0.2,0.7,1.8c-0.8,0.7,0.6,1.7,1.6,0.8c1-0.8,1.9-1.8,3.4-1.6c1.8,0.3,0.9,0.1,0.3,1.3c-1,1.9-1.4,4.5-0.7,6.8
			l0.1-0.1c-3.5-0.5-1,3.3-3.3,4.2c-2-2.7,1.8-7.5-3.3-9.2c-1.2,7.1-3.6,13.8-8.5,19.7c0-2.6,0-5.2,0-7.7L353.1,552.1z"/>
		<path id="XMLID_489_" class="st1" d="M362,680.9c0-2.1,0-3.9,0-5.6c0-1.2,0.1-2.1-1.7-2.3c-3.6-0.4-4.1-4.2-6.1-6.3
			c-0.5-0.5-0.3-1.3,0.5-1.5c1.2-0.4,1.2,1.1,1.9,1.6c0.2-0.5,0.3-0.9,0.3-1.2c0.3-1.5-2.3-2.9-0.3-4.3c0.5-0.4,2-0.5,2.4-0.1
			c1.3,1.3,1.7,2.9,1.2,4.9c-0.4,1.5-1.4,4.1,2.3,4.1c2.7,0,1.6,1.8,0.9,3.1c-0.7,1.2,0,2,0.9,2.4c0.9,0.5,1.2-0.6,1.7-1.2
			c0.5-0.7,0.7-1.6,1.3-2c1.9-1.3,4.7,0.7,6.5-1.5c-2.6-1.2-1.2-3.3-1.5-5.2c-0.3-2,2-4.1-0.7-6.2c-1.3-0.9-0.4-2.9,1.8-2.5
			c8.1,1.3,16-2.6,24.4-0.4c2.9,0.8,6.5,2.7,10,1.4c0.9-0.3,1.4,0.6,2,1.2c4,4.1,8,8.2,12.1,12.5c-8.9,3.9-18.4,4.4-28,4.6
			c-1.5,0-4.5-0.2-6.3,3c-1.3,2.3-6.4,0.3-9.7,1.5c-0.9,0.3-2.6,0-3.8,0.7c-1,0.5-2,1-2.1-0.6c-0.1-2.2-0.7-1.3-1.9-0.7
			c-1.8,0.9-4.1,2.6-5.3-1.1C364.6,678.2,364.2,678.3,362,680.9z"/>
		<path id="XMLID_488_" class="st0" d="M591,1038.2c5.2,0,10.3-0.3,15.1,2.3c3.2,1.8,7,0.3,10.6,1.1c3.9,0.9,7.9,0.8,11.6,2.9
			c1.6,0.9,4.2-0.5,5.5-1.8c0.5-0.5-0.9-3.2-1.5-4.8c-0.3-0.8-2-1.3-0.6-2.2c1.9-1.3,1.1,1.2,1.9,1.7c3.1,2,2.3,7.4,7.2,8.2
			c1.4,0.2,2-0.6,3.1-0.5c0.1,3.9-2.6,5.3-5.7,5.7c-3.1,0.4-6.5,1.4-9.3,0.8c-6.1-1.2-11.8,0.4-17.7,0.3c-2.4,0-5-0.7-5-3
			c0-7.8-5.7-6-9.9-6C592.8,1043.1,590.5,1042.4,591,1038.2z"/>
		<path id="XMLID_487_" class="st1" d="M575.3,746.7c-5.6,1.5-10.6,4.2-15.6,7.1c-2.7,1.5-5.2,3.2-8.3,0.8c2-1.9,5.2-2.9,2.2-7.1
			c-1.2-1.6,1-6.4,2.7-9c2.1-3.2,3.1-6.6,3.8-9.6c4.1,0.1,3.1,8.6,10,5.2c2.8-1.4,2.5,2.4,2.3,3.6c-0.6,3.6,0.3,6.5,2.6,9.1
			C575.2,746.8,575.3,746.7,575.3,746.7z"/>
		<path id="XMLID_486_" class="st2" d="M861.1,497c4.4-0.9,8.3-0.1,11.8,2.9c1.8,1.6,4.3,1.1,6.9,0.9c-1-1-0.2-4.3-3.3-2
			c-0.8,0.6-1.7-0.2-2-0.9c-0.5-1.5,1.3-1.5,1.7-1.5c3-0.6,6.1-0.7,9.2,0l-0.1-0.1c-3.1,2.8,1.6,0.9,1.1,2.4c-3,0.4-4.3,3.2-6.4,5.1
			c-1.1,1-1.2,2.7,1,3.1c0.8,0.1,1.7-0.1,2.5,0.1c1.8,0.3,5.1,0.8,5.1,1.1c-0.1,3.1-3.4,2.8-5.2,3.6c-1.6,0.7-3.8,0.6-5.4,1.7
			c-1.2,0.8-2.1,0.5-2.4-0.4c-1.5-3.9-5.1-5-8.6-6.8c0.1,2.1,1.4,3.1,2.8,3.7c1.4,0.6,1.4,1.2,0.6,2.1c-1.2,1.5-1.4,0.3-1.7-0.6
			c-1.2,0.8-2.4,1.7-3.7,2.5l0.1-0.1c-4.1-0.2-2.4-5.1-5.1-6.4c0.3-0.4,0.8-1.1,1-1c2.9,0.8,5.4-2.2,7.9-1.1c2.2,1,2-1.2,3.2-1.4
			c1.1-0.2-0.1-1.2-0.3-1.3c-1.1-0.3-2.5-1.7-2.6,1.2c0,1-9.3-1.7-11.3-3.8c0,0-0.1,0.1-0.1,0.1C859.1,499.2,860,498,861.1,497z"/>
		<path id="XMLID_485_" class="st3" d="M277.1,537c2.5,0.6,6.2-1.8,7.9,3.2c0.9,2.6,1.3,4.1-0.7,6c-0.8,0.8-2.5,1.6-0.2,2.8
			c1.1,0.6,0.2,0.8-0.4,1c-2.7,0.8-5.8,0-8.4,1.8c-1-1.6-2.6-3.1-2.9-4.8c-0.3-1.8-0.8-2-2.3-2.1c-2.7-0.2-1,2.3-2.1,3
			c-0.2,0.2-0.3,0.5-0.6,1c-1.1-1.7-4.5-2.6-1.1-5.2c-1.1-0.9-2-2.2-3.2-2.7c-1.6-0.7-1.4-1.7-0.8-2.7c0.4-0.7,1.9-0.7,2.2-0.1
			c1.4,3.1,4,1.1,6.3,1.9c-1.4-2.7-1.1-5.9-5.2-6.6c2.4-1.7,6.5-0.6,5.5-4.9c0-0.1,0.8-0.6,1.1-0.6c0.8,0.1,0.9,0.9,0.7,1.5
			c-1,2.9,0.2,4.2,3.1,4.4C280.1,534.2,275.5,535.8,277.1,537z"/>
		<path id="XMLID_484_" class="st4" d="M891.7,497.7c-0.5-1.9-2.7-1.5-3-3.3c-0.2-1.5-3.8-1.3-2.5-3.9c1-2.1,3.2-1.3,4.9-1.5
			c0.5,0,1-0.1,1.5-0.2c-0.6-1.6-2.6,0.1-3.3-1.6c7.4,0.6,12.9-4.9,19.8-5.7c4.1-0.5,8.1-0.2,12.1,0.9c1.1,0.3,1.7,0.8,1.6,1.9
			c-0.2,1.1-1.3,0.8-2,0.8c-4.4-0.1-7.7,3.3-11.6,4c-4.3,0.8-7.2,5.8-12.7,3.5C894.7,491.7,890.9,493.5,891.7,497.7z"/>
		<path id="XMLID_483_" class="st3" d="M461,716.7c1.1-3.7,4.6-4.5,6.8-6.7c2.5-2.5,4.6-4.6,2.5-9.9c3.3,3.7,4.8,2.1,5.9,0.2
			c1.8-3.1,4.6-3.2,6.9-1.6c1.8,1.3,2.7,3.2,0.4,6.3c-2,2.6-5,5.1-5.3,8.9c-0.1,0.9-1,1.1-1.1,0.4c-0.8-4.4-3.2-1.2-3.9-0.5
			C469.4,717.2,465.3,716.7,461,716.7z"/>
		<path id="XMLID_482_" class="st0" d="M659,1049.9c3.5,0.6,6.9,1.4,10.2,2.8c1.4,0.6,2.9,1,2.8,2.9c-0.1,1.6-1.3,2-2.5,2.6
			c-3.2,1.4-6.3,3.1-9.5,4.6c-0.3-0.4-0.5-0.9-0.9-1.2C652.2,1055.9,652.2,1055.6,659,1049.9z"/>
		<path id="XMLID_481_" class="st4" d="M309.2,625.7c-0.5-9.1,4.8-14.3,8.7-20.3c2-3,3.5-3.3,6.1-1.5c1.4,0.9,3.5,1.9,2.8,3.5
			c-1,2.1-1.7,5.2-4.6,5.5C314.9,613.7,311.1,617.9,309.2,625.7z"/>
		<path id="XMLID_480_" class="st0" d="M571,1036.2c4,1.7,8.4-1.2,12.4,0.8c0.8,0.4,1.7,0.8,2.6,1.2c-0.5,5.4-1.6,6.3-6.9,5.4
			c-0.8-0.1-1.6-0.4-2.4-0.3C569.6,1044,569,1043.3,571,1036.2z"/>
		<path id="XMLID_479_" class="st4" d="M417.6,713c0.3-4.6-3.8-7.1-0.4-11.7c-1.3,6.2,3.4,3.6,5.2,5.2c0.3,0.3,0.6,0.1,0.6-0.4
			c0-0.6-0.3-1.7-0.3-1.7c-3.4,0.3-2.3-2.5-2.9-4c-0.4-1.1-1.9-2.1-0.5-3.2c0.7-0.6,1.6-1.5,3-0.5c1.3,1,3.2,1.4,2.7,3.5
			c-0.7,3.1-0.7,5.3,3.4,5.2c0.6,0,0.6,0.6-0.5,1.4c-2.1,1.7-3.1,4.3-6.6,2.5C419.8,708.4,419.3,710.8,417.6,713z"/>
		<path id="XMLID_478_" class="st4" d="M320.1,631.9c6.2,4.1,11.3,9.3,18.1,12.1c0.7,0.3,1.5,0.5,2.2,0.9c1.5,0.8,4.8,1,3.3,3.5
			c-1.3,2.2-2.8-0.8-4.4-1.2c-5-1.6-8.9-5.4-14.3-6.7C319.8,639.1,318.4,635.6,320.1,631.9z"/>
		<path id="XMLID_477_" class="st2" d="M865.1,513.9c2.5,0.5,6-1.2,6.7,3.3c0.3,1.7,3.2-0.2,4.3,2.2c-5.8,1-10.6,4.7-17.1,4.3
			c4.4-2,3.4-7,6.2-9.9C865.3,513.8,865.1,513.9,865.1,513.9z"/>
		<path id="XMLID_476_" class="st2" d="M801.1,1100.1c-0.2-6.3-0.4-11.8,1.8-17.1c0.6-1.6,0.6-3.2,2.9-2.7c2.7,0.6,2.9,3.1,2,4.6
			C805.3,1089.6,804.7,1095.1,801.1,1100.1z"/>
		<path id="XMLID_475_" class="st3" d="M352.1,656.9c-1.7-2.4-5-3.8-4.2-7.8c5.1-1.3,7.9,4.5,13.2,5.1c-2.7,1-3.9,4.4-7.1,2.7
			c-0.1-0.1-0.3-0.3-0.4-0.4c-0.1-0.2-0.2-0.7-0.3-0.7c-0.6-0.2-0.4,0.5-0.7,0.8C352.3,656.7,352.2,656.8,352.1,656.9z"/>
		<path id="XMLID_474_" class="st4" d="M826.4,1028.4c-3,3-1.1,7.1-2,10.6c-0.9,3.5-1.2,7.1-3.6,10.4c0.8-7.1,1.4-14.2,2.7-21.2
			C824.1,1024.8,825.4,1028.4,826.4,1028.4C826.4,1028.5,826.4,1028.4,826.4,1028.4z"/>
		<path id="XMLID_473_" class="st3" d="M367.9,545.1c0.3,0,1-0.1,1-0.1c0-4.6,4.8-5.9,6.3-9.5c0.9-2.2,1.4-0.2,2.3,0.2
			c3.4,1.5-0.3,1.3-0.4,1.6c-1.4,2.3-4.8,3.5-3.2,7.2c0.1,0.3-0.2,1.8-0.6,1c-1.6-2.7-4,4.1-5.2-0.6
			C368.1,544.9,367.9,545.1,367.9,545.1z"/>
		<path id="XMLID_472_" class="st4" d="M844.1,555.7c-1-1.6-4,1.5-4-1.6c0-1.9,1.7-2.1,3.3-2.1c2.7,0,0.7-2.4,1-2.6
			c1.3-0.6,3-1,4.2,0c0.8,0.7,1,2.1-0.7,2.6C846.1,552.6,847.7,556.9,844.1,555.7z"/>
		<path id="XMLID_471_" class="st1" d="M925.1,479.3c3.5,0.8,6.6,1.1,9.8-0.3c1.1-0.5,2.7,0.2,2.8,1.4c0.1,1.1-1.3,1.4-2.5,1.6
			c-2.4,0.5-4.8-2-7.5,1.6C926.3,485.6,926.7,480.6,925.1,479.3z"/>
		<path id="XMLID_470_" class="st1" d="M305.6,627.4c3.2,1.1,6.5,2.1,9.6,3.5c1.5,0.7,2.6,2.3,1.3,4.1c-1.7,2.3-2-0.8-2.9-1.2
			c-3.1-1.4-6.7-2.6-7.9-6.5L305.6,627.4z"/>
		<path id="XMLID_469_" class="st0" d="M648,1046.2c2.2,1.3,4.5,2.5,7,3c-0.4,3-2.5,3.2-4.7,2.7
			C647.1,1051.1,648.2,1048.3,648,1046.2z"/>
		<path id="XMLID_468_" class="st5" d="M301.1,97c-4.2,3.4-6.8,8.6-12.1,10.9C292.8,104.1,295.7,99.1,301.1,97z"/>
		<path id="XMLID_467_" class="st4" d="M243.7,143.7c2,3.5-1.4,7.5,1,11C243,151.1,238.6,147.8,243.7,143.7z"/>
		<path id="XMLID_466_" class="st1" d="M319.7,1119.9c0,6.2,0,12.4,0,18.7c-0.2,0-0.3,0-0.5,0c0-6.4,0-12.7,0-19.1
			C319.4,1119.6,319.6,1119.7,319.7,1119.9z"/>
		<path id="XMLID_465_" class="st5" d="M3,886.6c-1.5-1.2-0.5-2.6-0.8-3.8c-0.3-1.3-1.9-2.4-0.8-4c0.2-0.2,1-0.4,1.3-0.2
			c1.7,1.1,1.2,2.9,1.2,4.5C4,884.2,4.4,885.4,3,886.6z"/>
		<path id="XMLID_464_" class="st4" d="M835.8,485.8c0.7-0.4,1.4-0.8,2.1-1.2c1.3-0.7,1.7-3,3.8-2.3c0.3,0.1,0.4,1.3,0.3,1.8
			c-0.6,1.9-1.5,3.5-4,2.9c-0.5-0.1-1-0.1-1.4-0.1C836.2,486.5,836,486.1,835.8,485.8z"/>
		<path id="XMLID_463_" class="st1" d="M319.7,1101.5c0,5.3,0,10.7,0,16c-0.2,0-0.3,0-0.5,0c0-5.3,0-10.7,0-16
			C319.4,1101.5,319.6,1101.5,319.7,1101.5z"/>
		<path id="XMLID_462_" class="st2" d="M528.7,532.6c-1.3-2.1-2.7-3.6-6.2-3.9c3.1-1.3,6.4,0.8,7.8-2.9
			C530,528.3,528.5,530.2,528.7,532.6z"/>
		<path id="XMLID_461_" class="st4" d="M229.8,184.8c0.7-0.4,1.9-0.9,1.9-1.2c-0.4-3.4,1-3,3.1-1.7c0.7,0.4,1.9,0.2,3.8,0.3
			c-3.5,1.4-5.8,3.3-9,2.5C229.7,184.7,229.8,184.8,229.8,184.8z"/>
		<path id="XMLID_460_" class="st1" d="M224,175.6c1.2-1.2,2.1-2.3,3.1-3.3c0.7-0.6,1.5-2.3,2.6-0.8c0.7,1,0.3,2.4-0.8,2.9
			C227.6,175.1,226.4,176.5,224,175.6z"/>
		<path id="XMLID_459_" class="st1" d="M419.7,683.4c-0.5,1.9,1.9,4.5-1.3,5.8c-0.6,0.3-1.6,0.3-1.5,0.1
			C418,687.5,417.5,684.9,419.7,683.4z"/>
		<path id="XMLID_458_" class="st4" d="M816.2,1042.2c-0.6,2.3-1.2,4.5-1.7,6.8c-0.5-0.1-0.9-0.3-1.4-0.4c-0.3-2.5-0.4-5,3.3-6.2
			C816.4,1042.3,816.2,1042.2,816.2,1042.2z"/>
		<path id="XMLID_457_" class="st6" d="M1.3,1213.6c-0.5-1.9-0.8-3.3,1.5-4.1c1.2-0.4,1.7,0.3,1.8,0.7
			C4.9,1212.4,3,1212.7,1.3,1213.6z"/>
		<path id="XMLID_456_" class="st4" d="M539.7,540.9c-2.2-1.4-1.9-3.6-2.5-5.5c0.4-0.1,1-0.4,1.3-0.2
			C540.7,536.6,540,538.7,539.7,540.9z"/>
		<path id="XMLID_455_" class="st1" d="M853.1,529c2,0,3.6,0,5.2,0c0.6,0,1.5-0.2,1.5,0.7c0,0.5-0.4,1.2-0.7,1.6
			c-0.4,0.5-1.5,0.8-1.6,0.4C857.2,529,854.3,530.8,853.1,529z"/>
		<path id="XMLID_454_" class="st4" d="M360.7,446.8c-2.3-1.3-3.3-2.9-2.3-5.4C360,442.7,361.9,443.9,360.7,446.8z"/>
		<path id="XMLID_453_" class="st5" d="M424.4,58.1c-2,1.2-4.2,0.6-6.3,1c-1.7,0.5-3.3,0.9-5,0C416.6,56.8,420.6,58.4,424.4,58.1z"
			/>
		<path id="XMLID_452_" class="st2" d="M261.3,534.2c-0.6,0.3-1,0.5-1.4,0.7c-0.7-1.4-3-1.6-2.9-3.6c0-0.7,0.5-1.6,1-1.2
			C259.2,531.2,260.1,532.7,261.3,534.2z"/>
		<path id="XMLID_451_" class="st4" d="M367.2,448.3c2.1-0.6,3.7-0.6,4.6,1.2c0.2,0.3-0.1,1.1-0.3,1.2c-1.1,0.4-2.2,0.8-2.6-1
			C368.8,449.3,368,449,367.2,448.3z"/>
		<path id="XMLID_450_" class="st4" d="M334.2,635.8c2.5,0.3,3.6,2.5,6.1,4.1c-3.8,0.1-5.3-1.6-6-4.3L334.2,635.8z"/>
		<path id="XMLID_449_" class="st1" d="M419.9,693.1c-1.2-0.1-2-0.3-1.8-1.1c0.3-1.2,1.1-1.9,2.4-1.9c0.9,0,1.8,0.3,1.4,1.3
			C421.5,692.3,420.7,693.2,419.9,693.1z"/>
		<path id="XMLID_448_" class="st2" d="M140.1,295.1c-0.3-1.7,0.4-2.9,2.2-2.9c0.5,0,1.5,1.3,1.4,1.5c-0.8,1.6-2.3,1.5-3.7,1.3
			L140.1,295.1z"/>
		<path id="XMLID_447_" class="st4" d="M574.7,713.2c6.3-0.9,2.1,2.9,2.3,3.1C577,716.2,576.6,714.6,574.7,713.2z"/>
		<path id="XMLID_446_" class="st4" d="M334.4,635.6c-1,0.1-2,0.2-2.9,0.4c-1.2,0.1-2.4,0-3-1.2c-0.1-0.2,0.2-1,0.5-1.2
			c1.5-1,1.6,1,2.6,1.2c0.9,0.2,2.1-0.2,2.7,0.9C334.2,635.8,334.4,635.6,334.4,635.6z"/>
		<path id="XMLID_445_" class="st4" d="M305.7,627.3c-1.6-2.5-0.7-4.7,0.9-7.1c1.2,2.8-1,4.8-1,7.2
			C305.6,627.4,305.7,627.3,305.7,627.3z"/>
		<path id="XMLID_444_" class="st5" d="M411,59.7c-3,0.1-6,0.3-9,0.4C404.9,58.2,407.9,58.8,411,59.7z"/>
		<path id="XMLID_443_" class="st3" d="M571.5,732.8c-1,0-3.1,0-5.3,0C568.3,729,570.6,733.5,571.5,732.8z"/>
		<path id="XMLID_442_" class="st0" d="M861.1,497c0.3,2.5-0.9,3.3-3.2,3c0.4-1.4,0.8-2.7,1.2-4.1
			C859.8,496.4,860.5,496.7,861.1,497z"/>
		<path id="XMLID_441_" class="st2" d="M407.9,515c1.1,0.7,1.1,1.4,0,2.1c-0.9-0.4-2.7,0.7-2.7-1C405.1,514.2,407,515.3,407.9,515z"
			/>
		<path id="XMLID_440_" class="st1" d="M591.8,689.5c-0.9-1.9-1.3-3.2,0-4.4c0.1-0.1,0.8,0,0.8,0.2
			C593.1,686.6,593.5,687.9,591.8,689.5z"/>
		<path id="XMLID_439_" class="st4" d="M707.9,446.1c0.7-0.3,1.5-0.6,2.2-1c0,0-0.1-0.1-0.1-0.1c0,3.3-2.6,3.1-4.7,4.1
			c0.1-2.2,2.5-1.6,2.8-3.1L707.9,446.1z"/>
		<path id="XMLID_438_" class="st1" d="M301.8,1105.7c0,2.3,0,4.5,0,6.8c-0.2,0-0.3,0-0.5,0c0-2.3,0-4.6,0-6.9
			C301.5,1105.6,301.6,1105.6,301.8,1105.7z"/>
		<path id="XMLID_437_" class="st7" d="M124.2,525.8c0.2,0.2,0.7,0.5,0.6,0.7c-0.4,1.7,2.9,1.1,2,3.1c-0.1,0.3-1,0.5-1.2,0.3
			c-1.7-1-1.9-2.5-1.2-4.2C124.3,525.7,124.2,525.8,124.2,525.8z"/>
		<path id="XMLID_436_" class="st1" d="M459.8,721.2c-0.2-0.2-0.7-0.5-0.6-0.7c0.4-1.7-2.9-1.1-2-3.1c0.1-0.3,1-0.5,1.2-0.3
			c1.7,1,1.9,2.5,1.2,4.2C459.7,721.3,459.8,721.2,459.8,721.2z"/>
		<path id="XMLID_435_" class="st8" d="M413.1,59.2c1.7,0,3.3,0,5,0c-1.7,0-2.9,3-5,0.9C413,59.7,413,59.4,413.1,59.2z"/>
		<path id="XMLID_434_" class="st4" d="M192.9,215.9c0.4,3.4-2.7,1.4-3.7,2.5c0.7-1.8,2.1-2.4,3.9-2.4
			C193.1,216.1,192.9,215.9,192.9,215.9z"/>
		<path id="XMLID_433_" class="st1" d="M133.5,288.1c-0.6,2-2.5,2-4.5,3.6C129.9,288.5,132.2,289.1,133.5,288.1z"/>
		<path id="XMLID_432_" class="st1" d="M139.9,294.9c0.2,1.7-0.4,2.8-2.2,3c-0.2,0-0.6-0.4-0.6-0.6c0.2-1.8,1.3-2.5,3-2.2
			C140.1,295.1,139.9,294.9,139.9,294.9z"/>
		<path id="XMLID_431_" class="st2" d="M722.6,442c0.1-0.6-2.8-1.2-0.9-2.9c0.3-0.2,1.2-0.3,1.4,0
			C724.1,440.4,722.6,441.5,722.6,442z"/>
		<path id="XMLID_430_" class="st4" d="M605.9,481c1,0,1.3,0.7,1,1.2c-0.3,0.7-1,1.3-1.6,1.6c-0.6,0.3-1.3-0.1-1.2-1
			C604.3,481.9,605,481.3,605.9,481z"/>
		<path id="XMLID_429_" class="st1" d="M626.8,616.9c-1.2,0.2-1.8-0.2-1.8-1.3c0-0.6-0.1-1.4,0.7-1.6c1.5-0.3,1.2,1.2,1.7,1.9
			C628.1,617,627.1,616.9,626.8,616.9z"/>
		<path id="XMLID_428_" class="st1" d="M835.3,509.7c-1.6,0.1-3.2,0.2-5.5,0.4c2.3-1.8,3.9-3.1,5.4-0.2
			C835.1,509.9,835.3,509.7,835.3,509.7z"/>
		<path id="XMLID_427_" class="st4" d="M536.2,1105.2c0,0.2-0.1,0.3-0.1,0.5c-0.6,1,0.8,2.8-1.1,3.2c-0.2,0.1-0.8-0.5-0.9-0.8
			c-0.2-1.6,0.3-2.8,2.3-2.7L536.2,1105.2z"/>
		<path id="XMLID_426_" class="st3" d="M397.7,635.2c0,1-0.8,0.7-1.2,0.7c-1.2,0.2-1.6-0.8-2.3-1.4c0.7-0.4,1.3-0.9,2-1.1
			C397.6,633.2,396.6,635,397.7,635.2z"/>
		<path id="XMLID_425_" class="st4" d="M467.4,1139.1c1.1,1.9,2.3,3.5,0.6,6.5C468.6,1142.8,466.3,1141.6,467.4,1139.1z"/>
		<path id="XMLID_424_" class="st4" d="M373.6,654.8c1.5-0.8,3.2-2.1,5.2,0C376.9,654.8,375.3,654.8,373.6,654.8z"/>
		<path id="XMLID_423_" class="st3" d="M635.9,623.1c-0.3,1.1-1.2,0.9-2,0.8c-0.8-0.1-1.2-0.8-0.8-1.3c0.2-0.4,1.1-0.5,1.7-0.6
			C635.5,622,636,622.4,635.9,623.1z"/>
		<path id="XMLID_422_" class="st4" d="M221.6,148.3c-2.9-0.6-3.7-1.7-4.6-3.3C219.3,145.1,219.9,146.4,221.6,148.3z"/>
		<path id="XMLID_421_" class="st4" d="M565.5,730c-1.1-0.1-2.2-0.2-3.2-0.3c0.3-0.7,0.5-1.9,1-2C564.6,727.2,563.7,730.3,565.5,730
			z"/>
		<path id="XMLID_420_" class="st4" d="M266.9,526.5c0.8-0.5,1.4-1.1,2.1-1.4c0.2-0.1,0.9,0.7,0.9,0.8c-0.4,0.7-0.8,1.3-1.3,2
			C268.1,527.4,267.6,527,266.9,526.5z"/>
		<path id="XMLID_419_" class="st1" d="M952.9,513c-0.1-1.3,0.3-2.6,0.1-3.8C954.1,510.3,954.3,511.6,952.9,513z"/>
		<path id="XMLID_418_" class="st4" d="M373.5,445c0.7,0,1.4,0,1.5,0.8c0.1,1.2-0.8,1.2-1.6,1.1c-0.7,0-1.3-0.2-1.2-1.1
			C372.1,445.1,372.8,445,373.5,445z"/>
		<path id="XMLID_417_" class="st4" d="M708.1,445.9c-0.8,0-1.6-0.1-2.4-0.1c0.8-1,1.5-2,3.1-3.9c-0.5,2.3-0.7,3.2-0.8,4.2
			C707.9,446.1,708.1,445.9,708.1,445.9z"/>
		<path id="XMLID_416_" class="st1" d="M599.6,652.1c0.8,2-1.7,2.9-0.9,4.6C597.7,654.9,597.6,653.4,599.6,652.1z"/>
		<path id="XMLID_415_" class="st5" d="M318.1,89c-1.5,1.1-3,2.3-5.1,1.9C314.4,89.4,316.1,88.9,318.1,89z"/>
		<path id="XMLID_414_" class="st4" d="M329.2,415.9c0-1.2-0.3-2.4,0.1-3.4c0.2-0.5,1,0.3,1.3,0.8
			C331.6,414.8,330.2,415.2,329.2,415.9z"/>
		<path id="XMLID_413_" class="st1" d="M817.3,1038.3c-0.8,1.2,0.4,2.9-1.1,3.9c0,0,0.1,0.1,0.2,0.1c-0.9-1.6-3-3.6,1-3.9
			L817.3,1038.3z"/>
		<path id="XMLID_412_" class="st4" d="M342.3,593.8c-0.4-1.1-0.7-2.4,0-3.3c0.4-0.6,1.1,0.3,1.4,0.8
			C344.6,592.8,343.3,593.2,342.3,593.8z"/>
		<path id="XMLID_411_" class="st1" d="M536.3,1105.4c-0.9-2-0.1-3.5,1.4-5c0.6,2.1-0.7,3.4-1.6,4.9
			C536.2,1105.2,536.3,1105.4,536.3,1105.4z"/>
		<path id="XMLID_410_" class="st2" d="M376.9,548.9c-1.8,0-3.1,0-4.4,0c0-0.3,0-0.8,0.1-0.8C374,547.4,375.4,547.2,376.9,548.9z"/>
		<path id="XMLID_409_" class="st2" d="M437.6,1106.1c-2.1-2.1-0.1-3.3-0.2-4.7C438.2,1102.8,438.1,1104.2,437.6,1106.1z"/>
		<path id="XMLID_408_" class="st2" d="M453.9,1106.1c-2.5-2.1,0.5-3.2,0.3-5.7c1.7,2.8-0.5,4.1-0.4,5.8L453.9,1106.1z"/>
		<path id="XMLID_407_" class="st4" d="M389,694.4c-0.8,0.4-1.4,0.8-2,1.1c-1,0.5-0.9-0.3-1-0.8c-0.1-0.9,0.1-1.8,1.2-1.5
			C387.8,693.2,388.2,693.8,389,694.4z"/>
		<path id="XMLID_406_" class="st5" d="M284.2,111.1c-1.1,0.9-2.1,1.8-3.2,2.7C281.2,111.8,282.3,111,284.2,111.1z"/>
		<path id="XMLID_405_" class="st4" d="M579.9,710.8c1.9-1.2,3.3-0.5,4.6-0.4C583.1,711.4,581.8,710.9,579.9,710.8z"/>
		<path id="XMLID_404_" class="st3" d="M353.9,656.9c-0.1,0.9,0.6,2.5-0.6,2.6c-1.1,0.1-1.5-1.3-1.3-2.6l-0.1,0.1
			c0.7-0.7,1.4-0.7,2.1,0L353.9,656.9z"/>
		<path id="XMLID_403_" class="st4" d="M349,534.5c-0.3,0.3,0.4,1.4-0.8,1c-0.5-0.2-1-0.8-1.1-1.4c-0.2-0.7,0.3-1.2,1.1-1.1
			C349,533.2,349,533.8,349,534.5z"/>
		<path id="XMLID_402_" class="st1" d="M372.8,652c-1,0-1.9,0-1.7-1.1c0-0.3,0.6-0.7,0.9-0.8c0.9,0,1.3,0.7,1.6,1.4
			C373.7,651.6,373,651.9,372.8,652z"/>
		<path id="XMLID_401_" class="st1" d="M135.6,531.6c0.5,1.5,0.7,3-1.2,4.2c0.4-1.4,0.9-2.7,1.3-4.1
			C135.8,531.8,135.6,531.6,135.6,531.6z"/>
		<path id="XMLID_400_" class="st4" d="M880.3,489.5c1.9-0.5,2.5,0.4,2.7,1.8C881.2,491.9,881.3,489.9,880.3,489.5z"/>
		<path id="XMLID_399_" class="st1" d="M718,607.8c-0.1,1.1-0.7,1.5-1.4,1.9c-0.2-0.4-0.5-0.7-0.5-1.1c-0.1-0.8,0-1.7,1.1-1.6
			C717.5,607.1,718.1,607.3,718,607.8z"/>
		<path id="XMLID_398_" class="st4" d="M817.4,1038.4c-0.7-1.7-0.4-3.3,0-4.9c0.6,1.6,1.1,3.2-0.2,4.8
			C817.3,1038.3,817.4,1038.4,817.4,1038.4z"/>
		<path id="XMLID_397_" class="st2" d="M348.2,593.3c-0.7,1-1.8,1-2.7,0.6c-0.8-0.3-0.9-1.6-0.4-2.1c1.1-0.9,0.5,1,1.3,1
			c0.6,0,1.2,0.3,1.9,0.5C348.4,593.4,348.2,593.3,348.2,593.3z"/>
		<path id="XMLID_396_" class="st7" d="M351,451c-0.2,1-0.8,1.2-1.4,0.9c-0.5-0.3-0.9-0.9-1.3-1.3c0.5-0.2,1-0.4,1.5-0.5
			C350.6,449.9,350.9,450.5,351,451z"/>
		<path id="XMLID_395_" class="st2" d="M839.1,505.1c0.1-1.2-1-3.7,2-2c0,0-0.1-0.2-0.1-0.2c0.9,2.2,0.2,2.9-2,2L839.1,505.1z"/>
		<path id="XMLID_394_" class="st1" d="M366.5,438c-0.8,0.9-1.4,2.1-2.5,1.4c-0.3-0.2-0.5-0.8-0.7-1.2
			C364.4,438.2,365.4,438.1,366.5,438z"/>
		<path id="XMLID_393_" class="st4" d="M350.9,431.1c1.3-0.2,2.3,0,2,1.6c-0.1,0.3-0.5,0.9-0.5,0.9c-1.2-0.5-1.6-1.4-1.3-2.7
			C351.1,430.9,350.9,431.1,350.9,431.1z"/>
		<path id="XMLID_392_" class="st1" d="M176,237.5c1.2-0.6,2.3-1.1,3.2-1.5c0.4,0.3,0.6,0.5,0.6,0.5
			C178.9,237.9,177.8,238.5,176,237.5z"/>
		<path id="XMLID_391_" class="st1" d="M425.6,691.1c1,2-1.6,2.2-0.9,3.8C423.4,693.2,424.2,692.1,425.6,691.1z"/>
		<path id="XMLID_390_" class="st0" d="M118,344.9c0.6,0.2,1.2,0.3,1.7,0.5c-0.8,0.8-1.6,1.6-2.4,2.4c-0.2-0.6-0.3-1.2-0.5-1.7
			C117.3,345.7,117.7,345.3,118,344.9z"/>
		<path id="XMLID_389_" class="st3" d="M453.7,1106.3c2.1-0.8,2.6,0.7,2.8,2.6c-0.9-0.9-1.7-1.8-2.6-2.7
			C453.9,1106.1,453.7,1106.3,453.7,1106.3z"/>
		<path id="XMLID_388_" class="st4" d="M885.5,496.4c-0.6-1.2-2.1-2.1-1.1-4.2C884.9,493.7,886.9,494.5,885.5,496.4
			C885.4,496.4,885.5,496.4,885.5,496.4z"/>
		<path id="XMLID_387_" class="st5" d="M23,614.7c0.2,0.4,0.6,0.8,0.6,1.2c0,0.6-0.6,0.9-1,0.5c-0.3-0.2-0.4-0.8-0.4-1.3
			C22.2,615,22.7,614.9,23,614.7z"/>
		<path id="XMLID_386_" class="st4" d="M846,491.1c1.6-1.8,3.3-1.8,4.9,0c0,0,0.1-0.1,0.1-0.1c-1.7,0.8-3.4,0.8-5.2,0L846,491.1z"/>
		<path id="XMLID_385_" class="st0" d="M756,1095.2c-5.5-3.3-8-9.5-6.8-14.9c1.6-7.3,4.5-14.3,3.8-22c-0.7-7.4-3-14-8.7-19.1
			c1.3,3.6,1.3,7.6,3.3,10.9c2.5,4.1,0.9,8.4,0,12.3c-1.7,6.9-3.6,13.7-4.6,20.7c-0.1,0.8,0.1,1.6-1.1,1.8c-2.1,0.4-8.7-4.6-8.9-6.7
			c-0.7-7.7,1.4-15,3.5-22c3.3-10.8,2.5-20.9-2.2-30.9c-0.6,2.1,0.3,3.9,0.5,5.8c0.9,8.4,0.8,16.6-1.7,24.9
			c-2.3,7.6-7.3,12.3-14.5,14.7c-3.1,1-6.4-0.3-9.3-1.6c-16.3-7.4-17.9-23.5-10.3-36.3c6.5-10.9,9-22.8,12.1-34.8
			c2.5-9.8-0.6-18.9-3-28.1c-1-3.9-3.2-7-6.7-9.7c-0.8,7.8-2.1,15.1-4.9,22.1c-1,2.4-0.6,3.9,2.7,5c8.3,2.7,7.9,2.9,6.1,11.9
			c-0.7,3.6-2.5,6.6-3.3,10c-0.5,2.1-2.4,3.1-4.3,1.7c-1.1-0.8-2.1-0.7-3.2-1.1c-8.6-3.5-8.7-3.2-13.5,4.7
			c-5,8.1-9.4,16.5-13.1,25.2c-1.3,3.1-2.8,3.5-5.8,1.8c-6-3.4-8.1-8.6-6.9-15.8c2.1-13.3,7-25.3,15-36.1
			c7.6-10.3,13.5-21.6,17.3-33.7c2-6.4,3.7-13,3.9-20.2c4.1,1.7,5.3,5.2,6.8,8.3c0.5,1,0.5,2.3,1.1,3.1
			c11.3,14.4,14.3,32.3,20.1,48.8c4.5,13,2.5,26.7-3.3,39.4c-1.2,2.7-2,5.4-2,8.4c0,1.9,0.4,3.2,2.2,3.7c1.9,0.5,2.9-0.6,4.1-2.1
			c5.8-7.2,5.6-15.8,4.5-23.9c-1-7.3-0.3-14.6-2.3-21.9c-3.1-11.3-8.4-21.9-11.6-33.1c-0.8-2.7-1.4-5.5-2-8.1
			c1.5-0.5,2.3-0.1,2.6,0.7c4.1,9.4,14.4,11.4,21.2,17.7c3.3,3.1,6,6.3,7.7,10.2c3.1,7,5.6,14.3,8.4,21.5c2.2,5.5,2.5,11.1,2.2,16.9
			c-0.1,1.9-0.5,3.8-1.9,4.8c-3.2,2.6-1.7,4.3,0.6,6.1c8.2,6.5,10.7,15.2,11.5,25.4c0.6,7.9-0.8,14.9-4,21.9
			C755.6,1087,755.9,1090.9,756,1095.2z"/>
		<path id="XMLID_384_" class="st0" d="M625.4,823.7c6.5-7.9,12.4-16.1,17.6-24.8c2.3-3.9,4.9-7.6,6.9-11.6c1.5-3,3.8-4.1,6.3-3
			c2.7,1.2,6.6,0.8,7,6c0.4,4.3,1.1,8.8,1.3,13c0.3,5.3-2,10.6-3.2,16c-0.7,3.1-1.7,6.1-2.1,9.3c4.8-5.4,6.5-11.8,6.2-19.1
			c-0.1,5.6,2.2,10.7,2.7,16.2c2.1-0.3,1.5-1.9,1.9-3.2c1.6-6.5,6.5-8.1,11.1-3.8c2.1,2,2.3,3.3,0.3,5.7c-5.4,6.5-7.7,14.4-8.4,22.7
			c-0.2,3.1-1.1,6.2,0.3,9.9c-3.2-3-1.4-7.1-3.9-9.7c-7.2,10-13.6,20.3-19.5,31.1c-3.8,6.9-5.3,6.9-13,3.6
			c-4.5-1.9-5.8-5.8-4.6-11.8c2.2-11.1,6.3-21.6,9.3-32.4c0.3-1.1,0.3-2.2,0.6-4.5c-4.7,4.6-6.9,9.6-9.2,14.4
			c-3.3,6.8-5.3,14.1-7.2,21.4c-0.4,1.6-0.9,3.9-3.7,3.9c-2.9,0.1-2.6-2.2-3.6-3.8c-4.2-7-5.3-14.7-5.7-22.7
			c-0.7-16.8-1.8-33.6-2.9-50.4c-0.5-7,0.1-14,1.4-20.7c2.2-11,10-13,18.7-7.7c10.5,6.5,16.4,18.3,7.1,30.8
			C631.7,805.9,627.5,814.4,625.4,823.7z"/>
		<path id="XMLID_383_" class="st0" d="M774,840.8c0.1-6-0.8-12.1,3.7-17.3c1.1-1.3,1.9-2.3,3.7-2.6c7.6-1.2,15.1-3.2,23-0.3
			c5,1.9,8.1,5,10.9,9.1c3.6,5.3,6.2,10.8,6.8,17.4c1.1,11.2,1.5,22.4,3.6,33.6c2,10.7,3.7,21.5,4.4,32.4c0.7,9.9,2.3,19.8,2.8,29.7
			c0.3,6.5-1.8,12.8-4.2,18.7c-1.5,3.6-3.9,2.9-7.9-0.2c-10.4-7.9-16.6-18.7-21.4-30.5c-4.4-10.8-9.6-21.3-13.3-32.4
			c-5.3-15.7-8.9-31.9-11.9-48.2C773.5,847.2,774,843.9,774,840.8z"/>
		<path id="XMLID_382_" class="st0" d="M715,907.7c-0.1-9.8,0.6-17.7,1.6-25.7c0.8-5.6-1.2-11.6-1.9-17.4c-1.1-8.7-2.5-17.3-3.7-26
			c-1.7-11.8-1.6-11.1,10.4-12.8c5.7-0.8,6.9,2,8.2,5.5c7.3,18.9,13,38.3,16.5,58.3c2.2,12.8,3.3,25.6,4.1,38.5
			c0.5,8.4,0,17,3.3,25.1c1.1,2.6,0.3,3.6-2.3,2.5c-1.2-0.5-2.2-0.5-3.4-0.6c-4.4-0.2-7.4-2-9.1-6.5c-2-5.3-3-10.6-2.8-16.2
			c0.1-2.1-0.2-4-3.3-4.4c-3.4-0.4-2.7,2.3-3.4,3.7c-0.6,1.2-0.7,3.1-0.2,4.4c1.4,3.5,1.4,7.3,2.4,10.9c0.4,1.7,0.3,2.5-1.1,2
			c-3.7-1.1-8.2-1.2-9.4-6.1C717.9,930.7,713.4,918.8,715,907.7z"/>
		<path id="XMLID_381_" class="st0" d="M764.7,887.6c-1.1,10.4-3.9,20.2-5.5,30.3c-1.4,9.4,0.9,18.8,4,27.8
			c1.5,4.2,2.9,8.5,4.8,12.5c1.7,3.5-0.1,3.6-2.6,3.8c-4.9,0.3-8.4-2.1-9.3-6.6c-2.8-15-4.2-30-2.6-45.4c0.8-7.1,3.5-13.4,5.4-19.9
			c1.8-6,0.6-11.7-1-17.2c-1.8-6.5-4.3-12.8-5.2-19.5c-0.2-1.7-1.6-3.2-2.8-3.1c-4.4,0.1-5.1-2.7-5.6-6c-0.7-4.8-2.8-9.3-2.7-14.3
			c0-1.9,0.2-3,2.6-3c8.7,0.1,17.3,0.1,26,0c2.1,0,2.4,0.8,2.5,2.6c0.2,5-1.3,9.8-1.1,14.8c0.6,15.7,2.9,31.1,7.2,46.1
			c6.1,21,15.7,40.7,25.2,60.3c4.1,8.5,4.1,8.5-5.2,8.3c-5.8-0.2-10.3-3-12.9-7.7c-7.1-12.9-13.4-26.3-18.2-40.3
			C765.4,903.5,764.3,895.6,764.7,887.6z"/>
		<path id="XMLID_380_" class="st0" d="M702.8,1156.1c1.6,3,1,6.3,1.2,9.6c0.6,8.4-1.6,16.5-3,24.7c-0.2,1.1-0.6,1.9-1.4,2.3
			c-0.2,0.1-1-1.1-1.6-1.6c-7.5-6.1-7.9-13.6-6.5-22.7c1.3-8.6,2.8-17.4,0.7-26.4c-1.7-7.5,1.2-14.6,5.3-20.7c2.2-3.2,0.6-4-1.3-5.2
			c-8.4-5.2-8.4-5.2-3.7-14.1c0.4-0.7,0.7-1.4,1.1-2.1c3.1-5.8,4.6-6.4,10.3-3.3c9.5,5,18.9,10.3,28.5,15.2c3.1,1.6,3.5,4.2,2.1,6
			c-2.8,3.9-4.1,8.4-6.1,12.5c-1.4,2.8-2.7,4.1-5.4,1.4c-1-1-2.5-1.3-3.8-2c-2.7-1.3-4.5-0.9-6.2,2.1c-4.1,7.1-8.5,14-9.5,22.4
			C703.3,1154.7,703.1,1155.3,702.8,1156.1z"/>
		<path id="XMLID_379_" class="st0" d="M742.7,1225c-6.1-3-10.9-6.3-11.9-13.7c-0.9-6.9-1.9-13.9,0.4-20.4
			c6.2-17.5,12.8-34.9,22.8-50.7c1.6-2.5,3.3-4.8,5.3-6.9c7.9-8.2,13.2-3.8,16.6,4c3.5,8.1,2.6,16.5,0.5,24.9
			c-1.5,6.3-4.1,12.1-7.4,17.6c-0.9,1.5-1.2,4.4-2.9,3.9c-2-0.6-4.4-1.7-5.4-4.4c-0.9-2.3-0.9-4.3-0.1-6.6c1.5-4.6,3-9.1,4.3-13.8
			c0.3-1.1,1.1-3.1-0.8-3.9c-2.1-0.9-2.2,1.4-3,2.4c-4.4,5.5-5.5,12.5-8,18.9c-2.9,7.5-6.4,14.6-9.6,22c-3.2,7.5-2.9,14.5-0.9,21.8
			C743.1,1221.8,743,1223.3,742.7,1225z"/>
		<path id="XMLID_378_" class="st0" d="M713.2,1193.2c-1.2-8.4,2.5-15.2,5.4-22.2c1.3-3.2,1.6-6.6,2.8-9.7c2-5.4,3.4-11,6.5-16
			c4.7-7.5,7-16.2,10.6-24.2c1.5-3.3,2.8-5,7.3-2.3c10.5,6.5,8.1,4.6,4.1,14.4c-7.8,19.3-17.4,37.8-23,58c-1.7,6.3-1.8,12.6-1.9,19
			c0,0.9,0.5,2-0.5,2.7c-1.5,0.9-2.8-1.2-2.9-1.3C716.3,1206.4,711.2,1201,713.2,1193.2z"/>
		<path id="XMLID_377_" class="st0" d="M741.1,978.3c6.6,3.7,13.3,6.7,19.9,9.9c4.6,2.2,5.2,8.2,8,12.3c1.4,2.1,3,4.2,3,7.4
			c-1.6-0.7-3-1.3-4.7-2.1c-0.2,3.6,2.2,5.5,3.8,7.7c4.1,5.6,6.4,11.8,7.9,18.4c0.3,1.5-0.6,2.8-0.9,4.2c-1.6,9-1.8,17.9-0.1,26.9
			c1.4,7.3-1.9,13.7-4.1,20.3c-2.3,7.1-4.9,14-4.9,21.6c0,1.3-0.4,2.6-1.4,2.9c-1.6,0.5-2-0.9-2.7-2.1c-3.5-5.9-3.3-11.7-1.2-18.1
			c3.2-9.5,6.6-19.2,5.1-29.5c-1.3-9.1-3.2-18-2.8-27.2c0.1-2.3,0.2-4.5,0.8-6.8c0.8-2.9,0.5-6.1-1.2-9c-3.6-6.5-7.2-12.7-13.3-17.6
			C746.4,992.8,745.1,984.7,741.1,978.3z"/>
		<path id="XMLID_376_" class="st0" d="M687.1,897.1c-0.5-7.5-2.9-14.5-6-21.2c-6.5-13.8-5-27.7,0-41.6c1.4-3.8,3.4-7.4,6.1-10.4
			c1.7-1.9,3.6-3.2,5.2,0.7c0.8,1.9,1,3.7,0.6,5.2c-2.8,10.2,1.5,19.5,3.5,29c0.1,0.6,0.7,1.3,0.5,1.8c-0.7,2.1,1.9,5.2-1.6,6.2
			c-3,0.8-7.9-2.6-8.3-5.4c-0.8-5.6-1.4-11.2-2.2-17.2c-5.8,12.4,3,59.1,14,74.7c-0.6-7.7-5.3-14.3-3.6-22c1.7,0.2,3.2,0.9,4.8,1.1
			c3.5,0.4,5.5,2.1,6.1,6.3c0.7,5.9,2.9,11.5,3.3,17.5c0.5,5.6,1.1,11.1-0.5,16.6c-0.3,1.2-0.7,2.3-2,2.4c-1.4,0.2-1.1-1.4-1.6-2.1
			c-4.3-6.1-7-13.1-10.4-19.7c-1-0.3-1.5-1-1.9-1.9c-0.5-1.9-0.9-3.9-1.9-5.6c-0.4-0.8-0.8-1.5-1.1-2.4c-0.4-1.9-0.6-3.8-1.5-5.4
			c-0.2-0.4-0.3-0.8-0.5-1.2c-0.3-1.6-0.8-3.2-1.2-4.9C687,897.5,687,897.3,687.1,897.1z"/>
		<path id="XMLID_375_" class="st0" d="M622.7,894.2c4.2,7.1,13.9,10.2,9.8,20.5c1.1-0.3,1.5-0.2,1.6-0.4c4-6.9,3.5-8.5,12.5-3.3
			c1.4,0.8,2.9,1.4,4.4,2c2.8,1.2,3.2,3,1.8,5.7c-3.4,6.4-6.8,12.8-9.7,19.4c-4.5,10.3-5.5,21.4-5.1,32.5c0.1,2.1,0.4,5.1-1.4,5.7
			c-1.9,0.6-2.4-2.6-3.7-4c-1.7-1.8-1.9-4-2-6.3c-0.2-18.5-2.7-36.6-8.8-54.1C620.2,906.4,620.1,900.6,622.7,894.2z"/>
		<path id="XMLID_374_" class="st0" d="M678.1,1159.7c-1.2-6.2-5.4-11.7-4.9-17.9c1-12.9-3.1-25.3-3.2-38.1c0-1.6-0.8-3.4-1.9-3.5
			c-2.9-0.1-1.5,3-2.6,4.5c-1.5-6.4-3.8-12.4-5.1-18.7c-0.8-3.8,0.3-6.4,2.8-8.7c2.4-2.3,5.2-1.7,7.7-0.3
			c12.1,6.7,17.1,13.7,12.5,28.2c-2.5,8-5.9,15.9-5.2,24.5c0.3,4.4,0.1,8.9,1.5,13.4C681.2,1148.3,680.1,1154.2,678.1,1159.7z"/>
		<path id="XMLID_373_" class="st0" d="M694,916.9c0.4,0.7,0.7,1.5,1.1,2.2c-0.7,3.4,1.9,6.1,1.9,9.9c-4.2-5.3-6.3-11-8.8-17.4
			c-0.2,2.5-0.3,4.3-0.4,6.2c-4.8-9-4.5-18.8-6.7-28.2c0,3,0,6,0,8.9c-2.9-5.9-4.4-11.9-1.5-18.3c0.1,0.6,0.2,1.2,0.3,1.8
			c0.4,1.5-1,3.2,2.3,4.2c2.8,0.9,2.6,5.8,3.7,8.9c0.3,0.7,0,1.7,1.1,1.9l-0.1-0.2c1.1,1.9,0.9,4.3,2.1,6.2l-0.1-0.2
			c1.1,1.8,1.2,4,2,6c0.4,0.7,0.7,1.5,1.1,2.2C692.7,913,692.8,915.1,694,916.9z"/>
		<path id="XMLID_372_" class="st0" d="M676.6,696.6c-0.6-2-0.8-3.6-3.4-1.5c-1.3,1.1-4.2,3.4-5.7-0.3c-0.6-1.4-1.6-3.5,1.9-2.3
			c1.2,0.4,4.6,1.6,4.9-2.7c0.2-3.1,3.2-0.7,4.7-0.6c1.6,0.1,0,2.1-0.3,2.4C677.1,692.9,677,694.7,676.6,696.6z"/>
		<path id="XMLID_371_" class="st0" d="M644,1014.7c-2.3-3.1-2.4-6.9-4.5-9.9c-1-1.4-1-3.4,0.7-4.3c1.2-0.6,2.2,1,2.7,2.1
			C644.8,1006.5,643.9,1010.7,644,1014.7z"/>
		<path id="XMLID_370_" class="st0" d="M949.7,975.2c-3.7,1.9-6-0.8-6.4-2.2c-0.7-2.3-2.1-5.5,1.4-7.6
			C946,968.8,944.8,973.3,949.7,975.2z"/>
		<path id="XMLID_369_" class="st0" d="M654,696.8c3.9-3.8,8-1.7,11.3-3.3c1-0.5,0.7,0.9,0.6,1.2c-0.2,0.6,0.8,1.5-1.1,1.8
			C661.6,697,658.4,697,654,696.8z"/>
		<path id="XMLID_368_" class="st0" d="M952,965.4c6.8,0.6,5.5,4.6,4.4,9.7C954.6,971.2,953.3,968.3,952,965.4z"/>
		<path id="XMLID_367_" class="st0" d="M887.9,612.4c-2.3,3.2-5.9,5.3-7.7,8.8c-0.2,0.4-1.1,0.5-1.7,0.7c-0.2-0.6-0.6-1.7-0.5-1.7
			c3.7-1.9,4.3-7.2,8.8-8.1C887.1,612,887.4,612.2,887.9,612.4z"/>
		<path id="XMLID_366_" class="st0" d="M904.5,969.2c0.8,0.5,1.6,1.1,1.5,2.2c-0.1,1.4,0.1,2.6,1.4,3.4c0.8,0.5,3.4-0.5,2.1,1.8
			c-0.8,1.3-2.2-0.3-3.4-0.5c-2.8-0.7-1.9-3.4-3-5.1C902.7,970.4,903.8,969.7,904.5,969.2z"/>
		<path id="XMLID_365_" class="st0" d="M898,973.4c0,0.8,0,1.6,0,2.5c0,1.2-1.5,1.4-1.6,1.1c-0.6-2-1-4-1.4-6.1
			c-0.2-1.1,0.2-1.9,1.5-1.9c1.1,0,1.4,0.5,1.4,1.4C898,971.4,898,972.4,898,973.4z"/>
		<path id="XMLID_364_" class="st0" d="M952.4,624.4c-2.7,0.9-5.4,1.1-7.5,3.1c-0.5,0.5-1.2,0.7-1.7,0.1c-0.6-0.9,0.5-1.2,0.7-1.7
			C946.1,620.4,949.7,624.8,952.4,624.4z"/>
		<path id="XMLID_363_" class="st0" d="M924.1,968.3c1,2.5,0.9,5,3.3,5.8c0.5,0.2,0.9,1.1,0.2,1.6c-0.5,0.3-1.5,0.5-1.8,0.3
			c-0.9-0.8-2.8-0.5-2.8-2.2C923.1,972.2,922.5,970.5,924.1,968.3z"/>
		<path id="XMLID_362_" class="st0" d="M941.1,501.5c-0.3,0.7-0.3,1-0.5,1.2c-1.6,2-3.9,2.4-6.3,2.8c0,0-0.4-1.1-0.2-1.3
			C935.9,502.3,937.6,500,941.1,501.5z"/>
		<path id="XMLID_361_" class="st0" d="M899.9,674.9c-0.1,5-0.1,5-5,4.7c0.9-2.5,1.4-5.3,5.1-4.5
			C900.1,675.1,899.9,674.9,899.9,674.9z"/>
		<path id="XMLID_360_" class="st0" d="M890,972.9c-0.8,1.4-1.7,3,0.4,3.9c1.3,0.5,1.6,0.8,0.5,1.7c-1.1,0.9-1.9,0.3-2.4-0.6
			c-1.1-1.8-0.3-4.1-1.3-6c-0.5-1,1.5-1.4,2.1-1.4C890.7,970.6,889.7,972,890,972.9z"/>
		<path id="XMLID_359_" class="st0" d="M913.6,969.8c0.2,3,1.9,3.9,4,4.1c1.5,0.1,1.6,1.1,1.3,2c-0.4,1.6-1.3,0.7-2.2,0.4
			C913.8,975.4,911.9,973.9,913.6,969.8z"/>
		<path id="XMLID_358_" class="st0" d="M889.8,558c1.1,0.4,1,0.5,0.8,0.9c-1.2,1.9-2.5,4.7-4.4,4.8c-2.3,0.1-0.4-1.5,0.1-2.4
			c0.6-1.3,2.5-0.8,2.8-2.3C889.1,558.5,889.6,558.2,889.8,558z"/>
		<path id="XMLID_357_" class="st0" d="M582.4,723.7c0.4,1.5,3.4,1,2.6,3.4c-0.3,1.1-1.2,0.9-1.9,0.8c-1-0.1-2-0.9-1.9-1.8
			C581.2,725.3,582,724.4,582.4,723.7C582.5,723.6,582.4,723.7,582.4,723.7z"/>
		<path id="XMLID_356_" class="st0" d="M864.1,690.3c0.3,0.3,1.9-2.5,1.9,0.3c0,2-1.5,1.4-2.5,1.4c-0.9,0-2.8,0.8-2.3-1.4
			C861.5,689.2,862.6,688.9,864.1,690.3z"/>
		<path id="XMLID_355_" class="st0" d="M934.5,972.9c-1.9-1.7-2-3.4-0.6-5.2c0.3-0.3,0.6-0.7,1-0.1
			C936.4,969.5,935.7,971.2,934.5,972.9z"/>
		<path id="XMLID_354_" class="st0" d="M922,506.6c0.2,1.3-0.7,1.5-1.8,1.4c-0.9-0.1-2,0.3-2.2-1.2c-0.2-1.6,0.7-1.9,2-1.8
			C921.1,505,922,505,922,506.6z"/>
		<path id="XMLID_353_" class="st0" d="M859.4,699.1c-0.6-1.7-0.7-3.2-0.1-4.7c0.8,0.4,2.4,0.8,2.4,1.2
			C861.7,697,861.4,698.6,859.4,699.1z"/>
		<path id="XMLID_352_" class="st0" d="M918.7,509.8c0.9,1.7,1.5,2.8,2.2,4C917.2,514.3,916.7,513,918.7,509.8z"/>
		<path id="XMLID_351_" class="st0" d="M866.4,680.8c-0.9,2.4-1.5,3.9-2.2,5.7C862.7,683.7,863.6,682.3,866.4,680.8z"/>
		<path id="XMLID_350_" class="st0" d="M825.8,573.3c-0.9,1.1-1.5,2.7-3.3,2.5c-0.2,0-0.6-1-0.4-1.2
			C822.9,573.2,824.1,572.5,825.8,573.3z"/>
		<path id="XMLID_349_" class="st9" d="M876.9,667c0.4-0.4,0.8-0.8,1.2-1.2c0.9-0.1,1.8-0.3,2.7-0.4
			C878.3,669.2,878.3,669.2,876.9,667z"/>
		<path id="XMLID_348_" class="st0" d="M871.5,969.1c1,1.7,0.4,2.8-0.9,3.6c-0.3,0.2-1.2,0-1.3-0.2
			C868.6,970.7,870.6,970.3,871.5,969.1z"/>
		<path id="XMLID_347_" class="st0" d="M953,954.2c-1.4,1.3-2.7,1.7-4.2,0.7c-0.5-0.3-0.5-0.7-0.1-1
			C950.1,952.6,951.3,954.5,953,954.2z"/>
		<path id="XMLID_346_" class="st0" d="M873.3,974.3c1.1,0.1,0.6,1.2,1.1,1.7c0.9,1-0.4,1.2-0.8,1.7c-0.5-0.5-1.3-0.9-1.5-1.5
			C871.8,975.3,872.7,974.8,873.3,974.3z"/>
		<path id="XMLID_345_" class="st0" d="M867.5,975c0.6,0.7,1.2,1.2,1.4,1.8c0.3,0.9-0.6,1.7-1.2,1.9c-1.1,0.2-0.6-1.1-1.1-1.6
			C865.6,976,867,975.8,867.5,975z"/>
		<path id="XMLID_344_" class="st0" d="M838.9,504.9c1.7,0.3,2.4-0.3,2-2c2.7-0.7,0.9,1.7,1.7,2.4
			C841.3,506.3,840,506.7,838.9,504.9z"/>
		<path id="XMLID_343_" class="st0" d="M946.4,960.7c2.9,0.6,3.7,1.7,4.6,3.3C948.7,963.9,948.1,962.6,946.4,960.7z"/>
		<path id="XMLID_342_" class="st0" d="M891.1,607.1c-1.1,1-1,3.1-3.9,4c1.8-1.8,0.7-4.7,4-3.9C891.3,607.3,891.1,607.1,891.1,607.1
			z"/>
		<path id="XMLID_341_" class="st0" d="M877.3,575.9c-1.3,1.3-0.8,2.8-2.2,3.1c-0.3,0.1-1-0.5-1-0.7
			C874.1,576.9,875,576.2,877.3,575.9z"/>
		<path id="XMLID_340_" class="st0" d="M857.1,985.6c-0.9,0.2-1.4,0.3-1.9,0.3c-0.7,0-1.2-0.3-1.1-1.1c0.1-0.8,0.7-1.1,1.3-0.7
			C855.9,984.4,856.3,984.9,857.1,985.6z"/>
		<path id="XMLID_339_" class="st0" d="M922.1,537.5c1.2-0.3,2-1.7,3.3-1.4c0.2,0.2,0.5,0.4,0.5,0.4
			C924.9,537.8,923.8,538.6,922.1,537.5z"/>
		<path id="XMLID_338_" class="st0" d="M821,582.7c0,1.1-0.6,1.3-1.2,1.2c-0.5,0-1.4,0.3-1.3-0.6c0.1-0.7,0.8-1.4,1.7-1.3
			C820.5,582.1,820.7,582.6,821,582.7z"/>
		<path id="XMLID_337_" class="st0" d="M884,566.6c-0.1,0.8-0.2,1.4-1.1,1.4c-0.8-0.1-1.1-0.6-0.8-1.3c0.2-0.5,0.8-1.2,1.3-1.3
			C884.3,565.3,883.7,566.3,884,566.6z"/>
		<path id="XMLID_336_" class="st9" d="M845.9,490.9c1.7,0,3.4,0,5.2,0C849.4,492.7,847.6,492.7,845.9,490.9z"/>
		<path id="XMLID_335_" class="st10" d="M900.5,555c0.3,0.3,1.4-0.4,1,0.8c-0.2,0.5-0.8,1-1.4,1.1c-0.7,0.2-1.2-0.3-1.1-1.1
			C899.2,555,899.8,555,900.5,555z"/>
		<path id="XMLID_334_" class="st3" d="M904.6,628.7c-0.8-0.2-0.6-0.9-0.6-1.4c0-0.7,0.1-1.3,1-1.2c0.3,0.1,0.8,0.5,0.9,0.8
			C906,627.8,905.3,628.2,904.6,628.7z"/>
		<path id="XMLID_333_" class="st0" d="M245.2,210.8c-1.5,0-2.4-1.4-3.9-1.6c1.5-0.2,3.1-0.4,4.9-0.6c-1.4-3.6-4.5-3.4-7.3-4
			c0.8-2.9,2.1-4.3,4.9-2.2c4.7,3.5,11,3.2,15.6,7c-1.1,1.3-3-0.2-4.2,1c1.8,0.9,4.1,1,5.8,3.5c-3.5,0-6.1-1.3-8.5-2.9
			c-2.5-1.6-5-2.3-7.5-0.2L245.2,210.8z"/>
		<path id="XMLID_332_" class="st0" d="M255.1,155.9c1.6,0.2,3.1,0.7,2.6,2.6c-0.2,0.9-0.5,2.9-2.8,1.7c-0.5-0.3-1.9,1.6-2.4,2.9
			c-0.5,1.3-1.3,2,0.9,2.2c0.7,0.1-0.3,0.6-0.6,0.7c-1.1,0.5-2.9,1.9-3.4,0.6c-0.9-2.6-3.3-0.9-4.7-2.5c2.6-2.4,3.5-6.9,8.5-6.4
			c0.6,0.1,1.3-1.3,1.9-2C255.3,155.8,255.1,155.9,255.1,155.9z"/>
		<path id="XMLID_331_" class="st0" d="M125.7,518.3c0.9-0.4,1.9-1.4,2.6-1.1c1.4,0.6,0.2,1.4-0.1,2.3c-1.1,3.3,4,1.4,3.2,4.5
			c1.4-2.2-0.8-3.5-0.4-5.4c0.3-1.7-0.5-4.2,2-4.3c1.4-0.1,1.1,3,3,3.5c-1.4,2.9-0.6,7.1-5,8.2c0,0,0.1,0.1,0.2,0.1
			c-2.4-2.2-5.8-3.7-5.3-7.9L125.7,518.3z"/>
		<path id="XMLID_330_" class="st0" d="M109.1,506.1c0.5-2-1.7-3.6-0.8-5.8c0.8,0.5,1.6,1,2.8,1.7c-0.6-2.4-1.8-4.5-0.4-7.2
			c1,2.2,5,2.1,4,4.8c-0.9,2.5-1.7,6.1-5.7,6.4C108.9,505.9,109.1,506.1,109.1,506.1z"/>
		<path id="XMLID_329_" class="st0" d="M178,241.8c-0.7,2,1.9,2.1,1.8,3.3c-0.1,1.5-1.4,0.1-2.1,0.3c-2,0.4-2.8,3.1-5.3,2.8
			c-0.6-0.1-1.3,1.3-2.1,0.4c-0.8-0.8-0.3-1.8,0.1-2.7C171.9,243,174.9,242.9,178,241.8z"/>
		<path id="XMLID_328_" class="st0" d="M268.2,138.1c1.8,1.5,4.6,2.8,4.8,6.2c0.1,0.9,0,1.7-1.2,1.6c-1.6,0-5.8-4.6-5.8-6.2
			C266,138.6,266.2,137.8,268.2,138.1z"/>
		<path id="XMLID_327_" class="st0" d="M396,539.1c0,1-0.1,1.8-1.5,2c-0.9,0.1-4.1-3.3-2.7,1.4c0.1,0.5-1.3,0.5-2.2,0.4
			c1.1-1.8-1.6-2.9-0.7-4.8c1.6-3.4,3.7-2.2,6-1.2C395.9,537.3,396.5,537.9,396,539.1z"/>
		<path id="XMLID_326_" class="st11" d="M351.3,423.8c0.8,1.5-0.5,1.1-1.1,1.2c-0.9,0-1.9,0.3-2.3-1.1c-0.7-2.6-2.2-5-1.4-7.7
			c0.1-0.3,0.6-1.2,1.5-0.6C348.6,416,351.3,422.4,351.3,423.8z"/>
		<path id="XMLID_325_" class="st0" d="M233.1,248.1c0.6-2.5,2.5-2.1,4.3-2.1c2.8,0,5.6,0,8.4,0c0.3,0,0.5,0.2,0.8,0.3
			c-0.6,1.5-2.2,0-3.1,1.4c1.8,0.6,3.6,0.7,5.5,0c-2.4,2.2-5.3,1-7.9,1.3c-0.2,0-0.5,0-0.7,0c-2.2-0.2-4.5,0.6-6.7-0.4
			C233.4,248.4,233.2,248.2,233.1,248.1z"/>
		<path id="XMLID_324_" class="st0" d="M225.2,244c0-0.3-0.2-0.8-0.1-1c3.9-4.4,8.3-2,12.6-0.5c-2.9,0.5-5.7,1-8.6,1.5
			C227.8,244.8,226.5,245.2,225.2,244z"/>
		<path id="XMLID_323_" class="st0" d="M411.5,525.5c-0.7-2.2-1.2-3.7-1.5-5.3c-0.2-1-0.4-2.8,1.6-1.9c2,0.8,1.4-0.1,0.9-1.1
			c-0.2-0.5-1.9,0-0.8-1.4c0.6-0.7,1.3-0.9,2.2-0.8c1.2,0.1,1.1,1,1.1,1.8C415.2,519.9,413.4,522.2,411.5,525.5z"/>
		<path id="XMLID_322_" class="st0" d="M203.1,289.6c2.2-3.2,6.2-3.5,8.3-6.4c0.6-0.8,2,0.3,1.9,0.7c-0.3,1.3-1.2,3.6-1.6,3.6
			C208.6,287.3,206.7,291.1,203.1,289.6z"/>
		<path id="XMLID_321_" class="st0" d="M406.1,91c4-1.6,8.2-0.7,12.5-1C416.5,92.3,412.8,92.7,406.1,91z"/>
		<path id="XMLID_320_" class="st0" d="M241,248.9c-2.5,1.7-6,1.4-8.3,3.8c-0.4,0.4-1.7,0.9-1.2-0.7c0.4-1.3-2.7-4,1.5-3.9
			c0,0-0.1-0.1-0.1-0.1c2.6,1.5,5.6-0.3,8.2,1.1L241,248.9z"/>
		<path id="XMLID_319_" class="st0" d="M416.3,423.2c-4.7-1.2-7.1-3.7-8.4-7.9C411.9,416.6,413.5,419.9,416.3,423.2z"/>
		<path id="XMLID_318_" class="st0" d="M549.2,125.8c2.1,0,3.9,1.6,6.1,1.3c0.6-0.1,2.2-0.9,2,0.8c-0.1,1.3-0.8,2.7-2.5,2.1
			c-2.3-0.8-4.8-1.4-5.5-4.3L549.2,125.8z"/>
		<path id="XMLID_317_" class="st11" d="M125.8,518.2c-3.6-3.9-1.7-7.9-0.3-12c-1.4,4.1,1.2,8,0.2,12.1
			C125.7,518.3,125.8,518.2,125.8,518.2z"/>
		<path id="XMLID_316_" class="st0" d="M385.8,414.2c-4.1-1.8-7.4-2.8-5.1-7.5C382.9,408.6,383.9,411,385.8,414.2z"/>
		<path id="XMLID_315_" class="st9" d="M421.8,92.6c2.4-1.9,4.4-3.3,7-2.2c0.5,0.2,0.1,1.1-0.3,1.7C426.6,95.1,424.4,93,421.8,92.6z
			"/>
		<path id="XMLID_314_" class="st0" d="M389.3,423.3c2.8,1.1,4.3,3.1,4.5,6.2C390.6,428.1,389.6,426.7,389.3,423.3z"/>
		<path id="XMLID_313_" class="st0" d="M269.3,131.6c2.4,1.4,4.1,2.3,3.6,4.7c-0.2,1-1.4,0.9-2,0.6C268.4,136,269,134,269.3,131.6z"
			/>
		<path id="XMLID_312_" class="st0" d="M416.4,76.8c4.5-1.4,7.9-2.8,11.3,0C424.2,76.8,420.9,76.8,416.4,76.8z"/>
		<path id="XMLID_311_" class="st9" d="M225.8,249.2c2.1-0.5,3.8-0.3,4.3,3c-3.4-1.8-6.6-1-9.9-1.3c1.6-2.2,4.4,0.5,5.7-1.8
			L225.8,249.2z"/>
		<path id="XMLID_310_" class="st0" d="M219.6,276.4c-2.1,2.9-5,2.3-7.1,3.3C214.5,278.4,215.7,275.4,219.6,276.4z"/>
		<path id="XMLID_309_" class="st0" d="M712.9,423.9c-1,1.9-2,3.8-3.1,6c-1.1-4.1-0.9-4.4,3.2-5.8
			C713.1,424.1,712.9,423.9,712.9,423.9z"/>
		<path id="XMLID_308_" class="st0" d="M365.6,588.9c-2.2-2-3.3,3.3-5.3,0.7c-0.9-1.3,0.9-1.2,1.3-1.8
			C363.6,584.9,364.3,588.1,365.6,588.9z"/>
		<path id="XMLID_307_" class="st0" d="M218.1,280.7c1.7-3,4.3-1.1,7.2-2.3C222.8,281.4,220.6,281.2,218.1,280.7z"/>
		<path id="XMLID_306_" class="st9" d="M245.1,210.9c1.7-0.2,3.1,0.6,5.6,2.1c-2.8-0.8-3.9,2.2-5.9,0.2c-1.2-1.1,0.5-1.6,0.5-2.4
			C245.2,210.8,245.1,210.9,245.1,210.9z"/>
		<path id="XMLID_305_" class="st0" d="M225.2,244c1.3,0,2.6,0,3.9,0c-1.5,3.1-4.3,1.7-6.7,1.9C222.7,244.2,225.1,245.7,225.2,244z"
			/>
		<path id="XMLID_304_" class="st10" d="M275.5,151c-1.2,0.1-1.7-0.7-2.2-1.3c0.8-0.5,1.6-1.4,2.6-1.6c1-0.2,2,0.7,1.7,1.6
			C277.4,150.5,276.5,151.4,275.5,151z"/>
		<path id="XMLID_303_" class="st0" d="M112.6,507.2c0.3,1.6,1,2.8,2.3,3.6c0,0-0.4,1-0.6,1c-1.7,0.1-2.5-1.4-3.2-2.5
			C110.6,508.7,111.5,507.9,112.6,507.2z"/>
		<path id="XMLID_302_" class="st0" d="M151.9,280.9c1.7-1.8,3-4,5.7-4.6c-1.8,1.7-2.3,5-5.8,4.5
			C151.8,280.8,151.9,280.9,151.9,280.9z"/>
		<path id="XMLID_301_" class="st0" d="M231.1,261.1c-2.8,2-5.8,0.4-9.5,0.9c3.7-2.4,6.7-0.8,9.7-0.8L231.1,261.1z"/>
		<path id="XMLID_300_" class="st0" d="M386.2,418c-0.8,2.1-1.3,3.6-1.8,5.1C382.6,420.1,382.6,420.1,386.2,418z"/>
		<path id="XMLID_299_" class="st0" d="M231.3,261.3c-0.2-1.7-2.2-0.9-3.5-2.1c2.6,0,4.7,0,6.8,0c-0.4,2.3-2.2,1.7-3.5,2
			C231.1,261.1,231.3,261.3,231.3,261.3z"/>
		<path id="XMLID_298_" class="st0" d="M358.1,588.3c-1.5,0.9-2.9,1.9-4.7,3C353.8,588.1,355.4,587.1,358.1,588.3z"/>
		<path id="XMLID_297_" class="st9" d="M489,514c-1.6-1.2-3.1-1.8-2.7-3.6c0.1-0.2,1.3-0.5,1.8-0.3C489.8,510.7,488.8,512.2,489,514
			z"/>
		<path id="XMLID_296_" class="st0" d="M266.1,521.1c-1.6,2.5-3.6,2.1-6.5,0.5c2.6-0.9,4.6-0.6,6.6-0.4
			C266.2,521.2,266.1,521.1,266.1,521.1z"/>
		<path id="XMLID_295_" class="st0" d="M360.4,425.4c-0.4,1.9,3.7,0.9,2.1,3.5c-0.2,0.4-0.7,0.6-1.1,0.9
			C361,428.4,359.4,427.3,360.4,425.4z"/>
		<path id="XMLID_294_" class="st0" d="M130.7,506.2c1.8,1.4-0.3,3.3,0.7,4.7c-0.4-0.1-1-0.1-1.3-0.4
			C128.6,508.9,130.3,507.7,130.7,506.2z"/>
		<path id="XMLID_293_" class="st0" d="M396,539.1c-0.4-0.7-0.7-1.5-1.1-2.2c0.2-0.7-0.3-1.7,1-1.8c0.9-0.1,0.8,0.7,1.2,1.2
			C398.3,537.9,397.2,538.5,396,539.1z"/>
		<path id="XMLID_292_" class="st0" d="M324.2,94.2c0.8-1.8,0.8-3.3,2.5-4C327.4,92.3,326.8,93.5,324.2,94.2z"/>
		<path id="XMLID_291_" class="st0" d="M376,425.8c-1,2.2-2.1,2.5-3.5,1.9c-0.2-0.1-0.2-0.8-0.3-1.3
			C373.3,426.3,374.4,426.1,376,425.8z"/>
		<path id="XMLID_290_" class="st0" d="M564.7,502.8c-1.2-0.8-2.5-1.5-2.7-3.4C564,499.8,565.8,500.1,564.7,502.8z"/>
		<path id="XMLID_289_" class="st10" d="M219.1,270.1c1-2.7,2.8-2,4.5-1.5C222.2,269.1,220.8,269.5,219.1,270.1z"/>
		<path id="XMLID_288_" class="st0" d="M180.9,489.6c-1.4,2.3-2.1,3.5-2.7,4.6C177.9,492.4,178,490.9,180.9,489.6z"/>
		<path id="XMLID_287_" class="st0" d="M428.2,488.4c-1.3-1.4-2.8-0.9-3-2.3c-0.1-0.3,0.5-1,0.7-1
			C427.1,485.2,427.8,486,428.2,488.4z"/>
		<path id="XMLID_286_" class="st0" d="M201.2,216.7c1.1-0.8,2-1.7,3.3-1.6c0.2,0,0.6,1,0.4,1.2
			C203.9,217.6,202.6,216.9,201.2,216.7z"/>
		<path id="XMLID_285_" class="st0" d="M214.9,269.3c-1.3,0.9-2.4,1.7-3.8,2.7C211.3,269.3,212.5,268.6,214.9,269.3z"/>
		<path id="XMLID_284_" class="st0" d="M204.6,280.7c1.6-0.9,3.3-1,5.9,0C207.9,280.7,206.3,280.7,204.6,280.7z"/>
		<path id="XMLID_283_" class="st0" d="M169,514.5c0,0.7,0,1.4-0.8,1.5c-1.2,0.1-1.2-0.8-1.1-1.6c0-0.7,0.2-1.3,1.1-1.2
			C168.9,513.1,169,513.8,169,514.5z"/>
		<path id="XMLID_282_" class="st0" d="M416.3,74.9c-1.6,0-3.1,0-4.7,0c0-0.2,0-0.3,0-0.5c1.6,0,3.2,0,4.8,0
			C416.4,74.5,416.4,74.7,416.3,74.9z"/>
		<path id="XMLID_281_" class="st0" d="M160.6,510.7c-0.8-0.2-0.6-0.9-0.6-1.4c0-0.7,0.1-1.3,1-1.2c0.3,0.1,0.8,0.5,0.9,0.8
			C162,509.8,161.3,510.2,160.6,510.7z"/>
		<path id="XMLID_280_" class="st0" d="M227.9,273.3c-1.1,0.4-1.7,1.9-3.1,0.9c-0.2-0.2-0.5-0.7-0.5-0.7
			C225.4,272.6,226.6,273,227.9,273.3z"/>
		<path id="XMLID_279_" class="st0" d="M224.6,256.2c2.4,0,3.7,0,6.2,0C228.1,257.2,226.7,257.3,224.6,256.2z"/>
		<path id="XMLID_278_" class="st0" d="M248.1,195.2c-0.5-0.5-1-0.7-1-1c-0.2-1.1,0.6-1.3,1.5-1.2c0.4,0.1,0.8,0.3,1.2,0.4
			C249.2,194,248.7,194.6,248.1,195.2z"/>
		<path id="XMLID_277_" class="st0" d="M549.3,125.7c-1.6,0.6-3.1,0.6-4.3-1.5c1.8-0.2,3,0.7,4.2,1.6
			C549.2,125.8,549.3,125.7,549.3,125.7z"/>
		<path id="XMLID_276_" class="st0" d="M225.9,249.1c-0.8-0.1-1.6-0.1-3.7-0.3c2.3-0.5,2.8-2.4,4.4-1.2c0.1,0.1-0.6,1-0.9,1.6
			C225.8,249.2,225.9,249.1,225.9,249.1z"/>
		<path id="XMLID_275_" class="st0" d="M139.7,522c1.1,0,1.3,0.6,1.2,1.2c0,0.5,0.3,1.4-0.6,1.3c-0.7-0.1-1.4-0.8-1.3-1.7
			C139.1,522.5,139.6,522.3,139.7,522z"/>
		<path id="XMLID_274_" class="st0" d="M257.6,505.7c1.3-0.8,2.7-0.9,4.1-0.2C260.3,506.5,258.9,505.7,257.6,505.7z"/>
		<path id="XMLID_273_" class="st0" d="M167.8,521.2c-0.8-0.9-1.5-1.8-1.1-3.1c0-0.2,1.2-0.3,1.4,0c1,1.2-0.4,2.1-0.4,3.2
			C167.7,521.3,167.8,521.2,167.8,521.2z"/>
		<path id="XMLID_272_" class="st0" d="M345.1,408.3c-0.7,0.7-1.1,1.2-1.6,1.5c-0.6,0.4-1.3,0.1-1.4-0.6c-0.1-0.7,0.2-1.2,1-1.2
			C343.6,408.1,344.2,408.2,345.1,408.3z"/>
		<path id="XMLID_271_" class="st4" d="M496.7,997.2c-0.5,3.4,1.8,4.6,4.5,5.5C494.8,1002.3,494.8,1002.3,496.7,997.2z"/>
		<path id="XMLID_270_" class="st3" d="M490.1,994.5c-0.3,0.3,0.3,1.5-0.8,1.1c-0.7-0.2-1.3-0.7-2-1.1c0.7-0.4,1.3-0.8,2-1.1
			C490.4,993,489.7,994.2,490.1,994.5z"/>
		<path id="XMLID_269_" class="st0" d="M353.1,552.1c0.2-1-0.8-2.4,0.7-3c0.7-0.3,1.1,0.3,1.2,1.1c0.2,1.7-0.7,2-2.1,1.7
			C352.9,551.9,353.1,552.1,353.1,552.1z"/>
		<path id="XMLID_268_" class="st0" d="M349,551.8c-0.3,0.3,0,1.1-0.7,0.8c-0.7-0.3-1.4-0.9-1.2-1.8c0.1-0.3,0.6-0.7,1-0.7
			C349.2,550.1,348.9,551.1,349,551.8z"/>
		<path id="XMLID_267_" class="st0" d="M384.5,678c-1.1-0.1-2.2-0.2-3.2-0.3c0.2-0.4,0.4-1,0.7-1.2
			C383.1,675.9,383.7,677.1,384.5,678z"/>
		<path id="XMLID_266_" class="st0" d="M354.1,657.1c-0.7,0-1.4,0-2.1,0c0.4-1.6-0.6-3.5,1-5.3C354.9,653.3,353.5,655.4,354.1,657.1
			z"/>
		<path id="XMLID_265_" class="st4" d="M728.9,990c7.6,8.7,9.8,18.1,7.7,29C730.3,1010.3,730,1000.3,728.9,990z"/>
		<path id="XMLID_264_" class="st3" d="M719.7,983.5c-2-5.3-3.5-9.9-3.7-15.4C719.8,975.8,720.2,977.2,719.7,983.5z"/>
		<path id="XMLID_263_" class="st4" d="M621.6,788c0.2,0.6,0.5,1,0.4,1.2c-0.4,0.9-1,1.7-1.9,3.3c0-1.5-0.2-2.2,0-2.7
			C620.4,789.1,621,788.6,621.6,788z"/>
		<path id="XMLID_262_" class="st3" d="M791,853.6c0.3-1.7-1.1-4.7,1.6-5.3c2.7-0.6,4,2.1,4.7,4.5c3.3,11,6.6,22.1,9.7,33.2
			c4.1,14.7,6.4,29.8,11.6,44.1c0.4,1.2,0.3,2.6,0.5,3.9c0.2,1.3-0.4,2.3-1.5,2.9c-1.2,0.6-1.7-0.6-2.5-1.2
			c-2.7-2.4-4.1-5.6-5.3-9.1c-8-22.4-13.5-45.5-18.7-68.6C790.8,856.6,791,855.2,791,853.6z"/>
		<path id="XMLID_261_" class="st4" d="M732.7,895.4c1.1,3.1-0.6,6.5,1.2,9.5c0.5,0.8,0.2,1.9-1.3,2.1c-1.4,0.1-1.7-0.6-1.7-1.8
			C731.1,901.9,730.5,898.4,732.7,895.4z"/>
		<path id="XMLID_260_" class="st4" d="M689.1,903.1c-2.3-1.5-2-3.9-2.1-6.2C689.2,898.4,689,900.8,689.1,903.1z"/>
		<path id="XMLID_259_" class="st3" d="M691,908.9c-1.5-1.7-1.9-3.8-2-6C691,904.4,691.1,906.6,691,908.9z"/>
		<path id="XMLID_258_" class="st3" d="M694,916.9c-2.1-1.4-2-3.6-1.9-5.8C693.5,912.8,694.1,914.7,694,916.9z"/>
		<path id="XMLID_257_" class="st1" d="M241.1,249.1c-2.7-0.7-5.7,1.2-8.2-1.1C235.6,248.6,238.6,246.7,241.1,249.1z"/>
	</g>
</g>
</svg>
