<?xml version="1.0" encoding="utf-8"?>
<svg version="1.1" id="Layer_1" xmlns="http://www.w3.org/2000/svg" xmlns:xlink="http://www.w3.org/1999/xlink" x="0px" y="0px"
	 viewBox="0 0 792 612" style="enable-background:new 0 0 792 612;" xml:space="preserve">
<style type="text/css">
	.st0 {
		clip-path:url(#w_1_);
		fill:#12130F;
		stroke:#fff;
		stroke-width:25;
		stroke-miterlimit:10;
		stroke-dasharray: 1000;
		stroke-dashoffset: 1000;
		transition: opacity 0.5s ease-in-out;
	}

	.st1 {
		clip-path:url(#elcome_1_);
		fill:#12130F;
		stroke:#fff;
		stroke-width:25;
		stroke-miterlimit:10;
		stroke-dasharray: 1000;
		stroke-dashoffset: 1000;
		transition: opacity 0.5s ease-in-out;
	}

	@keyframes all_in {
		from {stroke-dashoffset: 1000; }
		to { stroke-dashoffset: 0; }
	}

	@keyframes all_out {
		from {stroke-dashoffset: 0; }
		to { stroke-dashoffset: 1000; }
	}

</style>
<g id="w-mask">
	<defs>
		<path id="w" d="M102.2,340.7c1.2-4.4,1.7-10.1,1.7-17.1c0-17.4-1.4-34.1-4.1-50.2c-2.7-16.1-6.2-28.2-10.5-36.3
			c4.4-1.1,7.5-1.6,9.5-1.6c2.8,0,4.9,1.3,6.2,4c1.3,2.6,3,8.9,5,18.8c3.1,15.1,5.4,35.9,6.8,62.2c14.3-29.4,25.9-52.5,35-69.2
			c0.6-0.1,1-0.1,1.2-0.2c1.8-0.4,3-0.6,3.7-0.6c3.6,0,5.3,1.7,5.3,5.1c0,1-0.1,2.2-0.3,3.7c-1.7,13.9-2.6,24.2-2.6,30.8l-0.2,7.3
			l-0.1,4.4c0,16,2.4,24.1,7.3,24.1c5.6,0,11.2-5.8,17.1-17.4c6.5-13,9.7-28.2,9.7-45.5c0-7.5-1.9-14.5-5.6-20.9
			c3.1-0.8,5.9-1.1,8.4-1.1c3.9,0,6.7,1.1,8.3,3.3c1.6,2.2,2.4,6,2.4,11.4c0,17.6-5.1,35.5-15.2,53.7c-4.7,8.4-9.9,15.3-15.8,20.7
			c-5.8,5.4-10.9,8.1-15.3,8.1c-4.9,0-8.3-2.7-10.3-8.1c-2-5.4-3-14.8-3-28.2c0-5.3,0.3-13.6,0.8-24.6
			c-10.3,17.9-18.2,32.7-23.6,44.3l-2.1,4.7c-3,6.3-5.5,10-7.2,11.4C113.1,338.7,108.9,339.8,102.2,340.7z"/>
	</defs>
	<clipPath id="w_1_">
		<use xlink:href="#w"  style="overflow:visible;"/>
	</clipPath>
	<path id="w-path" class="st0" d="M93.5,224.3c0,0,7.5,18.6,10.8,33.8s4,39.5,4,39.5s0,33,2,35s6.8-5.2,6.8-5.2s27.1-54.7,29.3-57.3
		s6.1-11,8.8-10.3s1.5,19.9,0,25.8s-2.6,30.5,0,38.3s2,7.2,6,8.7s10.5-4,10.5-4s10.1-9.8,13.9-16.8s6.1-11.4,9.4-23.7
		s5.3-28.6,5.3-28.6s0.5-0.6-0.8-10.4s-12.5-22.4-12.5-22.4"/>
</g>
<g id="XMLID_1_">
	<defs>
		<path id="elcome" d="M741.5,282.3c-8.9,14.3-18.9,25.8-30,34.6c-11.1,8.7-21.2,13.1-30.4,13.1c-10.6,0-15.9-6.3-15.9-18.8
			c12,0,22.6-2.9,31.8-8.8c9.2-5.9,13.8-12.7,13.8-20.3c0-4.7-1.7-8.4-5-11.2s-7.7-4.2-13.2-4.2c-11.4,0-21.2,4.4-29.3,13.2
			c-6.3,6.8-10.1,14.7-11.5,23.7c-10.7,16.2-19,24.3-25,24.3c-3.6,0-5.5-2.6-5.5-7.7c0-2.9,0.6-7.4,1.8-13.4l2-10
			c1.9-9.8,2.9-16,2.9-18.8c0-7.6-3.3-11.4-9.8-11.4c-5.9,0-12.9,4.8-21,14.3c-8.1,9.6-15.9,22.2-23.4,37.9l3.8-19.4
			c2.2-11.2,3.3-18.4,3.3-21.6c0-7.5-2.6-11.2-7.8-11.2c-11.8,0-25.4,16.2-40.8,48.7l1.8-18.3c1-10.2,1.5-16.1,1.5-17.6
			c0-4.4-1.9-6.7-5.6-6.7c-2.1,0-5.6,0.9-10.5,2.7c1.5,1.7,2.5,4.1,2.9,7.2c-4.6,2.3-9,3.4-13.1,3.4c-7.7,0-15.1-2.4-22.2-7.3
			c-6.9-9.8-15.6-15.2-26-16c-1.4,1.9-2.1,3.9-2.1,5.9c0,1.3,0.5,3,1.6,4.9c-1.6-0.4-3.2-0.6-4.6-0.6c-9.5,0-17.7,3.7-24.7,11
			c-5,5.2-8.2,11.1-9.6,17.7c-15.5,19.7-29.4,29.6-41.6,29.6c-5.7,0-10.4-2.2-14-6.5c-3.6-4.3-5.4-10-5.4-16.8
			c0-8.5,2.7-16.3,8.1-23.4c5.4-7.1,11.2-10.7,17.6-10.7c7.4,0,11,3.5,11,10.4c0,0.9-0.2,1.9-0.6,3c8-2.4,12-5.9,12-10.6
			c0-2.9-1.6-5.2-4.7-7.1s-7.1-2.8-11.9-2.8c-11.9,0-22.3,4.4-31.2,13.2c-5.9,5.9-9.8,12.4-11.8,19.7c-6.2,9.3-10.9,15.8-14.3,19.5
			c-5.2,5.8-10.4,8.7-15.5,8.7c-5.3,0-8-3.6-8-10.8c0-2.6,0.7-7.4,2-14.3l14.9-77.2c-4.8,3.2-10.5,4.8-16.9,4.8
			c-6.5,0-12.3-1.5-17.4-4.4v1.5c0,8.2,4.9,12.3,14.8,12.3c1.2,0,2.7-0.1,4.4-0.4l-9.5,47.9c-8.1,12-17,21.9-26.7,29.6
			c-11.1,8.7-21.2,13.1-30.4,13.1c-10.6,0-15.9-6.3-15.9-18.8c12,0,22.6-2.9,31.8-8.8c9.2-5.9,13.8-12.7,13.8-20.3
			c0-4.7-1.7-8.4-5-11.2c-3.3-2.8-7.7-4.2-13.2-4.2c-11.4,0-21.2,4.4-29.3,13.2c-8.1,8.8-12.2,19.4-12.2,31.8
			c0,8.6,2.2,15.4,6.7,20.3c4.5,5,10.6,7.4,18.3,7.4c12,0,24.7-5.1,38.1-15.4c7.8-5.9,14.7-12.8,20.8-20.5l0,0.1
			c-1.3,6.4-1.9,11.4-1.9,14.9c0,6.2,1.5,11.3,4.6,15.2s7.1,5.8,12.1,5.8c6.9,0,14.8-4.8,23.7-14.3c3-3.2,5.9-6.8,8.9-10.8
			c0.6,7.5,3.1,13.7,7.6,18.6c5.1,5.6,11.8,8.5,20.1,8.5c9.9,0,20.7-5,32.3-15c4.5-3.8,8.8-8.2,13.1-13.2c0.6,7.2,3.3,13.2,8,17.9
			c5.4,5.5,12.4,8.2,21,8.2c11.2,0,21.1-4.6,29.4-13.8c8.4-9.2,12.6-20,12.6-32.3c0-0.8-0.1-1.7-0.2-2.8c6,2,11.4,3,16.2,3
			c5,0,9.9-1.2,14.8-3.5c-0.1,3.1-0.3,6.4-0.7,9.9l-1.5,13.7c-1.3,11.8-1.9,18.1-1.9,18.7c0,4.8,2.2,7.2,6.7,7.2
			c2,0,4.1-0.5,6.5-1.5c-0.7-0.9-1-1.7-1-2.6c0-3.2,4.5-12.9,13.4-29.3c9-16.5,15.8-24.8,20.4-24.8c2.1,0,3.1,1.4,3.1,4.3
			c0,2-1,7.8-3,17.6l-2.7,13.6c-0.5,2.4-0.9,4.6-1.4,6.7c-1.3,5.8-1.9,9.3-1.9,10.4c0,3.8,2,5.7,6,5.7c1.3,0,2.2-0.1,2.9-0.3
			c1.5-0.4,2.5-0.7,3.1-0.8c-0.2-0.6-0.3-1.1-0.3-1.3c0-2.4,5.4-12,16.2-28.7c11.9-18.3,20.2-27.5,24.8-27.5c1.9,0,2.8,0.9,2.8,2.8
			c0,1.5-0.6,5.2-1.8,11.2l-1.8,8.9c-1.7,8.5-2.6,14.7-2.6,18.5c0,11.5,4.4,17.3,13.3,17.3c9,0,19-7.7,30.1-23
			c0.7,6.4,2.8,11.5,6.4,15.5c4.5,5,10.6,7.4,18.3,7.4c12,0,24.7-5.1,38.1-15.4c13.4-10.3,24.3-23.2,32.7-38.9L741.5,282.3z
			 M240.3,282.5c4.9-6.2,10.3-9.3,16.1-9.3c4.9,0,7.3,2.7,7.3,8.2c0,6.1-3.2,11.5-9.6,16.1c-6.4,4.6-14.1,7.2-23,7.7
			C232.3,296.2,235.3,288.7,240.3,282.5z M471,321.5c-5.2,7.3-11.4,10.9-18.7,10.9c-5.3,0-9.7-2-13.1-5.9c-3.4-3.9-5.1-8.9-5.1-15
			c0-8.4,2.8-15.8,8.4-22.4c5.6-6.5,12.1-9.8,19.3-9.8c1.5,0,3.3,0.2,5.5,0.7c3,2.4,6.3,4.1,9.8,5.1c1.1,3.3,1.7,6.7,1.7,10.2
			C478.8,305.5,476.2,314.2,471,321.5z M691,273.1c4.9,0,7.3,2.7,7.3,8.2c0,6.1-3.2,11.5-9.6,16.1c-6.4,4.6-14.1,7.2-23,7.7
			c1.2-8.9,4.3-16.4,9.2-22.7C679.8,276.2,685.2,273.1,691,273.1z"/>
	</defs>
	<clipPath id="elcome_1_">
		<use xlink:href="#elcome"  style="overflow:visible;"/>
	</clipPath>
	<path id="e1-path" class="st1" d="M302.5,297.3c0,0-11.2,11.7-13.3,13.7c-2.2,2-11.1,10.3-15.7,13.7c-4.6,3.3-13.3,7.9-17.7,9.7
		c-4.3,1.8-10.8,2.3-15.7,1.7c-4.8-0.6-7.8-1.5-11.7-6s-4.5-10.2-4.7-14.7c-0.2-4.5,1.3-15.3,4-23.7c2.7-8.3,7-11.9,12-16.3
		c5-4.4,7.4-4.4,12.5-5.5c5.1-1.1,7.1-0.4,10.8,0.8s5.5,2.7,6.7,6.2c1.3,3.4,1.6,4.4-0.5,11.3c-2.1,6.9-6,9-11.6,12.5
		c-5.6,3.5-14.8,6.9-20.7,7.7c-5.9,0.8-6.4,0.4-13.3,0c-6.9-0.4-20.3-2.3-20.3-2.3"/>
	<path id="l-path" class="st1" d="M354.1,301.3l-5.5,7.4l-9.3,10.6c0,0-5.3,6.6-9,10c-3.8,3.4-6.8,4.3-8.4,5c-1.6,0.7-7,3-10.9,0.3
		c-3.9-2.7-3.8-7-4.3-11.7c-0.6-4.7-0.6-11,0-17s3.1-17.9,4.3-24.7c0,0,3.4-20.5,4.7-25.7s5.7-25,7.7-24s-1.8,2.5-3.7,3
		c-1.8,0.5-11.3,0.6-14.7,0c-3.4-0.6-3-0.9-6.8-2.1c-3.8-1.2-17.6-7-17.6-7"/>
	<path id="c-path" class="st1" d="M428.3,303.4l-10,9L410,320l-10.7,8.7c0,0-7.3,5.4-9.3,6c-2,0.6-7.4,2.6-12.1,2.6
		s-10.3-1.4-13.9-3.8s-8.1-4.5-9-7.8c-0.9-3.3-3-9.1-1.3-18c1.7-8.9,3.7-11,3.7-11s2.6-8.6,7.3-13.5c4.7-4.9,8.2-9.8,16-12.2
		c7.8-2.4,14-2.3,17.7,0c3.7,2.3,3.7,8.4,3.7,8.4l2.7,13.9"/>
	<path id="o-path" class="st1" d="M460.7,276.3c0,0-10.2,0.7-16.7,4.7s-5.5,4-9.9,9.7c-4.5,5.7-4.3,5.7-5.7,12.7
		c-1.5,7,0,12.3,0,12.3s1.5,8.3,4.4,12s6.9,7.1,11.8,8.4s6,1.3,11.9,0s12.5-5.3,15.6-8.1s6.8-8.9,6.8-8.9s4.2-8,5.8-15.7
		s1.1-7,1-11.6c0-4.5,0.5,1.3-2.3-8.1c-2.8-9.4-16.6-16.2-18.3-16.2s-1.8,4.8,1.7,7.3c3.5,2.6,21.7,10.5,28,12.3
		c6.3,1.9,4.9,2.2,12.7,2.1c7.8-0.1,18-3.4,18-3.4"/>
	<path id="m-path" class="st1" d="M651,310c0,0-1.5,3.7-4.7,8.3c-3.2,4.7-12.6,12.6-15.3,14.1s-5.4,3.9-10.3,2.2
		c-4.9-1.7-5.5-3.6-6.3-10c-0.8-6.4,2.3-19.6,2.3-19.6s2.2-18.6,2.7-21.5c0.5-2.9,2.3-9.1-2-10.5c-4.3-1.4-9.2,2.1-14,6.3
		c-4.8,4.2-14,18.6-14,18.6s-15,24.2-17.7,27c-2.6,2.8-7,7.6-6.7,6s7.9-36.4,8.3-41.9c0.4-5.5,0.5-9.9,0-12.4
		c-0.5-2.5-2.4-4.1-5-3.6c-2.6,0.5-7,3.9-10.7,7.9c-3.7,4-14,20.7-14,20.7s-7.8,12.4-9.7,15.7c-1.9,3.3-5.9,18.9-8.7,15.1
		c0-5.2,2-27.4,2-27.4s2.2-19.2,2-24.1c-0.2-4.8-3.3-11.5-6.2-12.8s-12.1,9.4-12.1,9.4"/>
	<path id="e2-path" class="st1" d="M660.3,307.7c0,0,8.5,2,18.7,0c10.1-2,14.6-4.8,19.3-10c4.7-5.2,8-13.1,7-18.3
		c-1-5.1-3.4-7.3-7-8.7s-10.5-1.4-15.5,0c-5,1.4-10.3,3.7-14.5,8.7c-4.2,5-8.7,16.4-9.8,22.3c-1.2,5.9-2.2,8.1-1.2,13.6
		c1,5.5,3.3,14.3,8.4,17.1s8.1,2.2,13.6,2.2c5.5,0,9,0.2,17-3.3s13-6,19.6-12.4s7.7-6,13.3-13c5.7-7,25-36.7,25-36.7"/>
</g>
</svg>
